G04 #@! TF.GenerationSoftware,KiCad,Pcbnew,(5.1.5)-3*
G04 #@! TF.CreationDate,2020-02-07T15:38:24-08:00*
G04 #@! TF.ProjectId,pcb,7063622e-6b69-4636-9164-5f7063625858,v1.1*
G04 #@! TF.SameCoordinates,Original*
G04 #@! TF.FileFunction,Legend,Top*
G04 #@! TF.FilePolarity,Positive*
%FSLAX46Y46*%
G04 Gerber Fmt 4.6, Leading zero omitted, Abs format (unit mm)*
G04 Created by KiCad (PCBNEW (5.1.5)-3) date 2020-02-07 15:38:24*
%MOMM*%
%LPD*%
G04 APERTURE LIST*
%ADD10C,0.300000*%
%ADD11C,0.127000*%
%ADD12C,0.120000*%
%ADD13C,0.200000*%
%ADD14C,0.150000*%
G04 APERTURE END LIST*
D10*
X152349142Y-91100285D02*
X151434857Y-91100285D01*
X151892000Y-90643142D02*
X151892000Y-91557428D01*
D11*
X148898428Y-95403307D02*
X148934714Y-95294450D01*
X148934714Y-95113021D01*
X148898428Y-95040450D01*
X148862142Y-95004164D01*
X148789571Y-94967878D01*
X148717000Y-94967878D01*
X148644428Y-95004164D01*
X148608142Y-95040450D01*
X148571857Y-95113021D01*
X148535571Y-95258164D01*
X148499285Y-95330735D01*
X148463000Y-95367021D01*
X148390428Y-95403307D01*
X148317857Y-95403307D01*
X148245285Y-95367021D01*
X148209000Y-95330735D01*
X148172714Y-95258164D01*
X148172714Y-95076735D01*
X148209000Y-94967878D01*
X148898428Y-94314735D02*
X148934714Y-94387307D01*
X148934714Y-94532450D01*
X148898428Y-94605021D01*
X148862142Y-94641307D01*
X148789571Y-94677592D01*
X148571857Y-94677592D01*
X148499285Y-94641307D01*
X148463000Y-94605021D01*
X148426714Y-94532450D01*
X148426714Y-94387307D01*
X148463000Y-94314735D01*
X148934714Y-93879307D02*
X148898428Y-93951878D01*
X148862142Y-93988164D01*
X148789571Y-94024450D01*
X148571857Y-94024450D01*
X148499285Y-93988164D01*
X148463000Y-93951878D01*
X148426714Y-93879307D01*
X148426714Y-93770450D01*
X148463000Y-93697878D01*
X148499285Y-93661592D01*
X148571857Y-93625307D01*
X148789571Y-93625307D01*
X148862142Y-93661592D01*
X148898428Y-93697878D01*
X148934714Y-93770450D01*
X148934714Y-93879307D01*
X148426714Y-93407592D02*
X148426714Y-93117307D01*
X148172714Y-93298735D02*
X148825857Y-93298735D01*
X148898428Y-93262450D01*
X148934714Y-93189878D01*
X148934714Y-93117307D01*
X148426714Y-92972164D02*
X148426714Y-92681878D01*
X148172714Y-92863307D02*
X148825857Y-92863307D01*
X148898428Y-92827021D01*
X148934714Y-92754450D01*
X148934714Y-92681878D01*
X148717000Y-92464164D02*
X148717000Y-92101307D01*
X148934714Y-92536735D02*
X148172714Y-92282735D01*
X148934714Y-92028735D01*
X148934714Y-91665878D02*
X148898428Y-91738450D01*
X148825857Y-91774735D01*
X148172714Y-91774735D01*
X148934714Y-91375592D02*
X148426714Y-91375592D01*
X148499285Y-91375592D02*
X148463000Y-91339307D01*
X148426714Y-91266735D01*
X148426714Y-91157878D01*
X148463000Y-91085307D01*
X148535571Y-91049021D01*
X148934714Y-91049021D01*
X148535571Y-91049021D02*
X148463000Y-91012735D01*
X148426714Y-90940164D01*
X148426714Y-90831307D01*
X148463000Y-90758735D01*
X148535571Y-90722450D01*
X148934714Y-90722450D01*
X148934714Y-90250735D02*
X148898428Y-90323307D01*
X148862142Y-90359592D01*
X148789571Y-90395878D01*
X148571857Y-90395878D01*
X148499285Y-90359592D01*
X148463000Y-90323307D01*
X148426714Y-90250735D01*
X148426714Y-90141878D01*
X148463000Y-90069307D01*
X148499285Y-90033021D01*
X148571857Y-89996735D01*
X148789571Y-89996735D01*
X148862142Y-90033021D01*
X148898428Y-90069307D01*
X148934714Y-90141878D01*
X148934714Y-90250735D01*
X148426714Y-89670164D02*
X148934714Y-89670164D01*
X148499285Y-89670164D02*
X148463000Y-89633878D01*
X148426714Y-89561307D01*
X148426714Y-89452450D01*
X148463000Y-89379878D01*
X148535571Y-89343592D01*
X148934714Y-89343592D01*
X148934714Y-88654164D02*
X148172714Y-88654164D01*
X148898428Y-88654164D02*
X148934714Y-88726735D01*
X148934714Y-88871878D01*
X148898428Y-88944450D01*
X148862142Y-88980735D01*
X148789571Y-89017021D01*
X148571857Y-89017021D01*
X148499285Y-88980735D01*
X148463000Y-88944450D01*
X148426714Y-88871878D01*
X148426714Y-88726735D01*
X148463000Y-88654164D01*
X149805571Y-95367021D02*
X149805571Y-95113021D01*
X150204714Y-95004164D02*
X150204714Y-95367021D01*
X149442714Y-95367021D01*
X149442714Y-95004164D01*
X150204714Y-94568735D02*
X150168428Y-94641307D01*
X150095857Y-94677592D01*
X149442714Y-94677592D01*
X150168428Y-93988164D02*
X150204714Y-94060735D01*
X150204714Y-94205878D01*
X150168428Y-94278450D01*
X150095857Y-94314735D01*
X149805571Y-94314735D01*
X149733000Y-94278450D01*
X149696714Y-94205878D01*
X149696714Y-94060735D01*
X149733000Y-93988164D01*
X149805571Y-93951878D01*
X149878142Y-93951878D01*
X149950714Y-94314735D01*
X150168428Y-93298735D02*
X150204714Y-93371307D01*
X150204714Y-93516450D01*
X150168428Y-93589021D01*
X150132142Y-93625307D01*
X150059571Y-93661592D01*
X149841857Y-93661592D01*
X149769285Y-93625307D01*
X149733000Y-93589021D01*
X149696714Y-93516450D01*
X149696714Y-93371307D01*
X149733000Y-93298735D01*
X149696714Y-93081021D02*
X149696714Y-92790735D01*
X149442714Y-92972164D02*
X150095857Y-92972164D01*
X150168428Y-92935878D01*
X150204714Y-92863307D01*
X150204714Y-92790735D01*
X150204714Y-92536735D02*
X149696714Y-92536735D01*
X149841857Y-92536735D02*
X149769285Y-92500450D01*
X149733000Y-92464164D01*
X149696714Y-92391592D01*
X149696714Y-92319021D01*
X150204714Y-91956164D02*
X150168428Y-92028735D01*
X150132142Y-92065021D01*
X150059571Y-92101307D01*
X149841857Y-92101307D01*
X149769285Y-92065021D01*
X149733000Y-92028735D01*
X149696714Y-91956164D01*
X149696714Y-91847307D01*
X149733000Y-91774735D01*
X149769285Y-91738450D01*
X149841857Y-91702164D01*
X150059571Y-91702164D01*
X150132142Y-91738450D01*
X150168428Y-91774735D01*
X150204714Y-91847307D01*
X150204714Y-91956164D01*
X149696714Y-91375592D02*
X150204714Y-91375592D01*
X149769285Y-91375592D02*
X149733000Y-91339307D01*
X149696714Y-91266735D01*
X149696714Y-91157878D01*
X149733000Y-91085307D01*
X149805571Y-91049021D01*
X150204714Y-91049021D01*
X150204714Y-90686164D02*
X149696714Y-90686164D01*
X149442714Y-90686164D02*
X149479000Y-90722450D01*
X149515285Y-90686164D01*
X149479000Y-90649878D01*
X149442714Y-90686164D01*
X149515285Y-90686164D01*
X150168428Y-89996735D02*
X150204714Y-90069307D01*
X150204714Y-90214450D01*
X150168428Y-90287021D01*
X150132142Y-90323307D01*
X150059571Y-90359592D01*
X149841857Y-90359592D01*
X149769285Y-90323307D01*
X149733000Y-90287021D01*
X149696714Y-90214450D01*
X149696714Y-90069307D01*
X149733000Y-89996735D01*
X149805571Y-89670164D02*
X149805571Y-89416164D01*
X150204714Y-89307307D02*
X150204714Y-89670164D01*
X149442714Y-89670164D01*
X149442714Y-89307307D01*
X149696714Y-88654164D02*
X150313571Y-88654164D01*
X150386142Y-88690450D01*
X150422428Y-88726735D01*
X150458714Y-88799307D01*
X150458714Y-88908164D01*
X150422428Y-88980735D01*
X150168428Y-88654164D02*
X150204714Y-88726735D01*
X150204714Y-88871878D01*
X150168428Y-88944450D01*
X150132142Y-88980735D01*
X150059571Y-89017021D01*
X149841857Y-89017021D01*
X149769285Y-88980735D01*
X149733000Y-88944450D01*
X149696714Y-88871878D01*
X149696714Y-88726735D01*
X149733000Y-88654164D01*
X149696714Y-87964735D02*
X150313571Y-87964735D01*
X150386142Y-88001021D01*
X150422428Y-88037307D01*
X150458714Y-88109878D01*
X150458714Y-88218735D01*
X150422428Y-88291307D01*
X150168428Y-87964735D02*
X150204714Y-88037307D01*
X150204714Y-88182450D01*
X150168428Y-88255021D01*
X150132142Y-88291307D01*
X150059571Y-88327592D01*
X149841857Y-88327592D01*
X149769285Y-88291307D01*
X149733000Y-88255021D01*
X149696714Y-88182450D01*
X149696714Y-88037307D01*
X149733000Y-87964735D01*
X150749000Y-94967878D02*
X150712714Y-95040450D01*
X150712714Y-95149307D01*
X150749000Y-95258164D01*
X150821571Y-95330735D01*
X150894142Y-95367021D01*
X151039285Y-95403307D01*
X151148142Y-95403307D01*
X151293285Y-95367021D01*
X151365857Y-95330735D01*
X151438428Y-95258164D01*
X151474714Y-95149307D01*
X151474714Y-95076735D01*
X151438428Y-94967878D01*
X151402142Y-94931592D01*
X151148142Y-94931592D01*
X151148142Y-95076735D01*
X151474714Y-94605021D02*
X150966714Y-94605021D01*
X150712714Y-94605021D02*
X150749000Y-94641307D01*
X150785285Y-94605021D01*
X150749000Y-94568735D01*
X150712714Y-94605021D01*
X150785285Y-94605021D01*
X150966714Y-94351021D02*
X150966714Y-94060735D01*
X150712714Y-94242164D02*
X151365857Y-94242164D01*
X151438428Y-94205878D01*
X151474714Y-94133307D01*
X151474714Y-94060735D01*
X151474714Y-93806735D02*
X150712714Y-93806735D01*
X151474714Y-93480164D02*
X151075571Y-93480164D01*
X151003000Y-93516450D01*
X150966714Y-93589021D01*
X150966714Y-93697878D01*
X151003000Y-93770450D01*
X151039285Y-93806735D01*
X150966714Y-92790735D02*
X151474714Y-92790735D01*
X150966714Y-93117307D02*
X151365857Y-93117307D01*
X151438428Y-93081021D01*
X151474714Y-93008450D01*
X151474714Y-92899592D01*
X151438428Y-92827021D01*
X151402142Y-92790735D01*
X151474714Y-92427878D02*
X150712714Y-92427878D01*
X151003000Y-92427878D02*
X150966714Y-92355307D01*
X150966714Y-92210164D01*
X151003000Y-92137592D01*
X151039285Y-92101307D01*
X151111857Y-92065021D01*
X151329571Y-92065021D01*
X151402142Y-92101307D01*
X151438428Y-92137592D01*
X151474714Y-92210164D01*
X151474714Y-92355307D01*
X151438428Y-92427878D01*
X133912428Y-95377000D02*
X133948714Y-95268142D01*
X133948714Y-95086714D01*
X133912428Y-95014142D01*
X133876142Y-94977857D01*
X133803571Y-94941571D01*
X133731000Y-94941571D01*
X133658428Y-94977857D01*
X133622142Y-95014142D01*
X133585857Y-95086714D01*
X133549571Y-95231857D01*
X133513285Y-95304428D01*
X133477000Y-95340714D01*
X133404428Y-95377000D01*
X133331857Y-95377000D01*
X133259285Y-95340714D01*
X133223000Y-95304428D01*
X133186714Y-95231857D01*
X133186714Y-95050428D01*
X133223000Y-94941571D01*
X133186714Y-94687571D02*
X133948714Y-94506142D01*
X133404428Y-94361000D01*
X133948714Y-94215857D01*
X133186714Y-94034428D01*
X133948714Y-93744142D02*
X133186714Y-93744142D01*
X133186714Y-93562714D01*
X133223000Y-93453857D01*
X133295571Y-93381285D01*
X133368142Y-93345000D01*
X133513285Y-93308714D01*
X133622142Y-93308714D01*
X133767285Y-93345000D01*
X133839857Y-93381285D01*
X133912428Y-93453857D01*
X133948714Y-93562714D01*
X133948714Y-93744142D01*
X133440714Y-90151857D02*
X133948714Y-89970428D01*
X133440714Y-89789000D01*
X133948714Y-89099571D02*
X133948714Y-89535000D01*
X133948714Y-89317285D02*
X133186714Y-89317285D01*
X133295571Y-89389857D01*
X133368142Y-89462428D01*
X133404428Y-89535000D01*
X133876142Y-88773000D02*
X133912428Y-88736714D01*
X133948714Y-88773000D01*
X133912428Y-88809285D01*
X133876142Y-88773000D01*
X133948714Y-88773000D01*
X133259285Y-88446428D02*
X133223000Y-88410142D01*
X133186714Y-88337571D01*
X133186714Y-88156142D01*
X133223000Y-88083571D01*
X133259285Y-88047285D01*
X133331857Y-88011000D01*
X133404428Y-88011000D01*
X133513285Y-88047285D01*
X133948714Y-88482714D01*
X133948714Y-88011000D01*
X135218714Y-94959714D02*
X135218714Y-95395142D01*
X135218714Y-95177428D02*
X134456714Y-95177428D01*
X134565571Y-95250000D01*
X134638142Y-95322571D01*
X134674428Y-95395142D01*
X135218714Y-94234000D02*
X135218714Y-94669428D01*
X135218714Y-94451714D02*
X134456714Y-94451714D01*
X134565571Y-94524285D01*
X134638142Y-94596857D01*
X134674428Y-94669428D01*
X134456714Y-93544571D02*
X134456714Y-93907428D01*
X134819571Y-93943714D01*
X134783285Y-93907428D01*
X134747000Y-93834857D01*
X134747000Y-93653428D01*
X134783285Y-93580857D01*
X134819571Y-93544571D01*
X134892142Y-93508285D01*
X135073571Y-93508285D01*
X135146142Y-93544571D01*
X135182428Y-93580857D01*
X135218714Y-93653428D01*
X135218714Y-93834857D01*
X135182428Y-93907428D01*
X135146142Y-93943714D01*
X134529285Y-93218000D02*
X134493000Y-93181714D01*
X134456714Y-93109142D01*
X134456714Y-92927714D01*
X134493000Y-92855142D01*
X134529285Y-92818857D01*
X134601857Y-92782571D01*
X134674428Y-92782571D01*
X134783285Y-92818857D01*
X135218714Y-93254285D01*
X135218714Y-92782571D01*
X134456714Y-92310857D02*
X134456714Y-92238285D01*
X134493000Y-92165714D01*
X134529285Y-92129428D01*
X134601857Y-92093142D01*
X134747000Y-92056857D01*
X134928428Y-92056857D01*
X135073571Y-92093142D01*
X135146142Y-92129428D01*
X135182428Y-92165714D01*
X135218714Y-92238285D01*
X135218714Y-92310857D01*
X135182428Y-92383428D01*
X135146142Y-92419714D01*
X135073571Y-92456000D01*
X134928428Y-92492285D01*
X134747000Y-92492285D01*
X134601857Y-92456000D01*
X134529285Y-92419714D01*
X134493000Y-92383428D01*
X134456714Y-92310857D01*
X134456714Y-91585142D02*
X134456714Y-91512571D01*
X134493000Y-91440000D01*
X134529285Y-91403714D01*
X134601857Y-91367428D01*
X134747000Y-91331142D01*
X134928428Y-91331142D01*
X135073571Y-91367428D01*
X135146142Y-91403714D01*
X135182428Y-91440000D01*
X135218714Y-91512571D01*
X135218714Y-91585142D01*
X135182428Y-91657714D01*
X135146142Y-91694000D01*
X135073571Y-91730285D01*
X134928428Y-91766571D01*
X134747000Y-91766571D01*
X134601857Y-91730285D01*
X134529285Y-91694000D01*
X134493000Y-91657714D01*
X134456714Y-91585142D01*
X135218714Y-90424000D02*
X134456714Y-90424000D01*
X134747000Y-90424000D02*
X134710714Y-90351428D01*
X134710714Y-90206285D01*
X134747000Y-90133714D01*
X134783285Y-90097428D01*
X134855857Y-90061142D01*
X135073571Y-90061142D01*
X135146142Y-90097428D01*
X135182428Y-90133714D01*
X135218714Y-90206285D01*
X135218714Y-90351428D01*
X135182428Y-90424000D01*
X135218714Y-89408000D02*
X134819571Y-89408000D01*
X134747000Y-89444285D01*
X134710714Y-89516857D01*
X134710714Y-89662000D01*
X134747000Y-89734571D01*
X135182428Y-89408000D02*
X135218714Y-89480571D01*
X135218714Y-89662000D01*
X135182428Y-89734571D01*
X135109857Y-89770857D01*
X135037285Y-89770857D01*
X134964714Y-89734571D01*
X134928428Y-89662000D01*
X134928428Y-89480571D01*
X134892142Y-89408000D01*
X134710714Y-88718571D02*
X135218714Y-88718571D01*
X134710714Y-89045142D02*
X135109857Y-89045142D01*
X135182428Y-89008857D01*
X135218714Y-88936285D01*
X135218714Y-88827428D01*
X135182428Y-88754857D01*
X135146142Y-88718571D01*
X135218714Y-88029142D02*
X134456714Y-88029142D01*
X135182428Y-88029142D02*
X135218714Y-88101714D01*
X135218714Y-88246857D01*
X135182428Y-88319428D01*
X135146142Y-88355714D01*
X135073571Y-88392000D01*
X134855857Y-88392000D01*
X134783285Y-88355714D01*
X134747000Y-88319428D01*
X134710714Y-88246857D01*
X134710714Y-88101714D01*
X134747000Y-88029142D01*
D12*
X142232000Y-126238000D02*
G75*
G02X141232000Y-126238000I-500000J0D01*
G01*
X150622000Y-95758000D02*
X132842000Y-95758000D01*
X150622000Y-126238000D02*
X132842000Y-126238000D01*
X151078000Y-108033078D02*
X151078000Y-107515922D01*
X149658000Y-108033078D02*
X149658000Y-107515922D01*
X148919000Y-110621578D02*
X148919000Y-110104422D01*
X147499000Y-110621578D02*
X147499000Y-110104422D01*
X146435578Y-125043000D02*
X145918422Y-125043000D01*
X146435578Y-123623000D02*
X145918422Y-123623000D01*
X149658000Y-102659922D02*
X149658000Y-103177078D01*
X151078000Y-102659922D02*
X151078000Y-103177078D01*
X139117000Y-102659922D02*
X139117000Y-103177078D01*
X140537000Y-102659922D02*
X140537000Y-103177078D01*
X141521922Y-107771000D02*
X142039078Y-107771000D01*
X141521922Y-106351000D02*
X142039078Y-106351000D01*
X136704000Y-97736922D02*
X136704000Y-98254078D01*
X138124000Y-97736922D02*
X138124000Y-98254078D01*
X144347000Y-103177078D02*
X144347000Y-102659922D01*
X142927000Y-103177078D02*
X142927000Y-102659922D01*
X141942078Y-97969000D02*
X141424922Y-97969000D01*
X141942078Y-99389000D02*
X141424922Y-99389000D01*
X146760000Y-98224078D02*
X146760000Y-97706922D01*
X145340000Y-98224078D02*
X145340000Y-97706922D01*
X151078000Y-98224078D02*
X151078000Y-97706922D01*
X149658000Y-98224078D02*
X149658000Y-97706922D01*
X145340000Y-107485922D02*
X145340000Y-108003078D01*
X146760000Y-107485922D02*
X146760000Y-108003078D01*
X138124000Y-108003078D02*
X138124000Y-107485922D01*
X136704000Y-108003078D02*
X136704000Y-107485922D01*
X133806000Y-108003078D02*
X133806000Y-107485922D01*
X132386000Y-108003078D02*
X132386000Y-107485922D01*
X132259000Y-112819922D02*
X132259000Y-113337078D01*
X133679000Y-112819922D02*
X133679000Y-113337078D01*
X133806000Y-103177078D02*
X133806000Y-102659922D01*
X132386000Y-103177078D02*
X132386000Y-102659922D01*
X153212000Y-95461500D02*
X153212000Y-92976500D01*
X151842000Y-95461500D02*
X153212000Y-95461500D01*
X151842000Y-92976500D02*
X151842000Y-95461500D01*
X127702000Y-88078000D02*
X129032000Y-88078000D01*
X127702000Y-89408000D02*
X127702000Y-88078000D01*
X130302000Y-88078000D02*
X132902000Y-88078000D01*
X130302000Y-90678000D02*
X130302000Y-88078000D01*
X127702000Y-90678000D02*
X130302000Y-90678000D01*
X132902000Y-88078000D02*
X132902000Y-95818000D01*
X127702000Y-90678000D02*
X127702000Y-95818000D01*
X127702000Y-95818000D02*
X132902000Y-95818000D01*
X132386000Y-97706922D02*
X132386000Y-98224078D01*
X133806000Y-97706922D02*
X133806000Y-98224078D01*
X149658000Y-112849922D02*
X149658000Y-113367078D01*
X151078000Y-112849922D02*
X151078000Y-113367078D01*
D13*
X146075000Y-89063000D02*
X146075000Y-87573000D01*
X146075000Y-87573000D02*
X137135000Y-87573000D01*
X137135000Y-87573000D02*
X137135000Y-89063000D01*
X146075000Y-92993000D02*
X146075000Y-91783000D01*
X137135000Y-92993000D02*
X137135000Y-91783000D01*
X145485000Y-96083000D02*
G75*
G03X145485000Y-96083000I-100000J0D01*
G01*
D11*
X145605000Y-104527000D02*
X145375000Y-104527000D01*
X145375000Y-104527000D02*
X145375000Y-103797000D01*
X145375000Y-102097000D02*
X145375000Y-101367000D01*
X145375000Y-101367000D02*
X145605000Y-101367000D01*
X148305000Y-104527000D02*
X148535000Y-104527000D01*
X148535000Y-104527000D02*
X148535000Y-103797000D01*
X148535000Y-102097000D02*
X148535000Y-101367000D01*
X148535000Y-101367000D02*
X148305000Y-101367000D01*
D13*
X145955000Y-105047000D02*
G75*
G03X145955000Y-105047000I-100000J0D01*
G01*
D12*
X140933249Y-122685380D02*
X141605000Y-123357131D01*
X141605000Y-123357131D02*
X142276751Y-122685380D01*
X135050120Y-116802251D02*
X134378369Y-116130500D01*
X134378369Y-116130500D02*
X135050120Y-115458749D01*
X148159880Y-115458749D02*
X148831631Y-116130500D01*
X148831631Y-116130500D02*
X148159880Y-116802251D01*
X142276751Y-109575620D02*
X141605000Y-108903869D01*
X141605000Y-108903869D02*
X140933249Y-109575620D01*
X140933249Y-109575620D02*
X140021081Y-108663452D01*
D13*
X135363000Y-101715000D02*
X137026000Y-101715000D01*
X137026000Y-101715000D02*
X137026000Y-104241000D01*
X137026000Y-104241000D02*
X134900000Y-104241000D01*
X134900000Y-104241000D02*
X134900000Y-102178000D01*
X134900000Y-102178000D02*
X135363000Y-101715000D01*
X135000000Y-101715000D02*
G75*
G03X135000000Y-101715000I-100000J0D01*
G01*
D14*
X132897714Y-125801380D02*
X132897714Y-124801380D01*
X133135809Y-124801380D01*
X133278666Y-124849000D01*
X133373904Y-124944238D01*
X133421523Y-125039476D01*
X133469142Y-125229952D01*
X133469142Y-125372809D01*
X133421523Y-125563285D01*
X133373904Y-125658523D01*
X133278666Y-125753761D01*
X133135809Y-125801380D01*
X132897714Y-125801380D01*
X133850095Y-125753761D02*
X133992952Y-125801380D01*
X134231047Y-125801380D01*
X134326285Y-125753761D01*
X134373904Y-125706142D01*
X134421523Y-125610904D01*
X134421523Y-125515666D01*
X134373904Y-125420428D01*
X134326285Y-125372809D01*
X134231047Y-125325190D01*
X134040571Y-125277571D01*
X133945333Y-125229952D01*
X133897714Y-125182333D01*
X133850095Y-125087095D01*
X133850095Y-124991857D01*
X133897714Y-124896619D01*
X133945333Y-124849000D01*
X134040571Y-124801380D01*
X134278666Y-124801380D01*
X134421523Y-124849000D01*
X135373904Y-125801380D02*
X134802476Y-125801380D01*
X135088190Y-125801380D02*
X135088190Y-124801380D01*
X134992952Y-124944238D01*
X134897714Y-125039476D01*
X134802476Y-125087095D01*
X149074142Y-107862666D02*
X149121761Y-107910285D01*
X149169380Y-108053142D01*
X149169380Y-108148380D01*
X149121761Y-108291238D01*
X149026523Y-108386476D01*
X148931285Y-108434095D01*
X148740809Y-108481714D01*
X148597952Y-108481714D01*
X148407476Y-108434095D01*
X148312238Y-108386476D01*
X148217000Y-108291238D01*
X148169380Y-108148380D01*
X148169380Y-108053142D01*
X148217000Y-107910285D01*
X148264619Y-107862666D01*
X149169380Y-107386476D02*
X149169380Y-107196000D01*
X149121761Y-107100761D01*
X149074142Y-107053142D01*
X148931285Y-106957904D01*
X148740809Y-106910285D01*
X148359857Y-106910285D01*
X148264619Y-106957904D01*
X148217000Y-107005523D01*
X148169380Y-107100761D01*
X148169380Y-107291238D01*
X148217000Y-107386476D01*
X148264619Y-107434095D01*
X148359857Y-107481714D01*
X148597952Y-107481714D01*
X148693190Y-107434095D01*
X148740809Y-107386476D01*
X148788428Y-107291238D01*
X148788428Y-107100761D01*
X148740809Y-107005523D01*
X148693190Y-106957904D01*
X148597952Y-106910285D01*
X146915142Y-110529666D02*
X146962761Y-110577285D01*
X147010380Y-110720142D01*
X147010380Y-110815380D01*
X146962761Y-110958238D01*
X146867523Y-111053476D01*
X146772285Y-111101095D01*
X146581809Y-111148714D01*
X146438952Y-111148714D01*
X146248476Y-111101095D01*
X146153238Y-111053476D01*
X146058000Y-110958238D01*
X146010380Y-110815380D01*
X146010380Y-110720142D01*
X146058000Y-110577285D01*
X146105619Y-110529666D01*
X146010380Y-110196333D02*
X146010380Y-109529666D01*
X147010380Y-109958238D01*
X146010333Y-123039142D02*
X145962714Y-123086761D01*
X145819857Y-123134380D01*
X145724619Y-123134380D01*
X145581761Y-123086761D01*
X145486523Y-122991523D01*
X145438904Y-122896285D01*
X145391285Y-122705809D01*
X145391285Y-122562952D01*
X145438904Y-122372476D01*
X145486523Y-122277238D01*
X145581761Y-122182000D01*
X145724619Y-122134380D01*
X145819857Y-122134380D01*
X145962714Y-122182000D01*
X146010333Y-122229619D01*
X146867476Y-122134380D02*
X146677000Y-122134380D01*
X146581761Y-122182000D01*
X146534142Y-122229619D01*
X146438904Y-122372476D01*
X146391285Y-122562952D01*
X146391285Y-122943904D01*
X146438904Y-123039142D01*
X146486523Y-123086761D01*
X146581761Y-123134380D01*
X146772238Y-123134380D01*
X146867476Y-123086761D01*
X146915095Y-123039142D01*
X146962714Y-122943904D01*
X146962714Y-122705809D01*
X146915095Y-122610571D01*
X146867476Y-122562952D01*
X146772238Y-122515333D01*
X146581761Y-122515333D01*
X146486523Y-122562952D01*
X146438904Y-122610571D01*
X146391285Y-122705809D01*
X152470380Y-103085166D02*
X151994190Y-103418500D01*
X152470380Y-103656595D02*
X151470380Y-103656595D01*
X151470380Y-103275642D01*
X151518000Y-103180404D01*
X151565619Y-103132785D01*
X151660857Y-103085166D01*
X151803714Y-103085166D01*
X151898952Y-103132785D01*
X151946571Y-103180404D01*
X151994190Y-103275642D01*
X151994190Y-103656595D01*
X151470380Y-102180404D02*
X151470380Y-102656595D01*
X151946571Y-102704214D01*
X151898952Y-102656595D01*
X151851333Y-102561357D01*
X151851333Y-102323261D01*
X151898952Y-102228023D01*
X151946571Y-102180404D01*
X152041809Y-102132785D01*
X152279904Y-102132785D01*
X152375142Y-102180404D01*
X152422761Y-102228023D01*
X152470380Y-102323261D01*
X152470380Y-102561357D01*
X152422761Y-102656595D01*
X152375142Y-102704214D01*
X138533142Y-103036666D02*
X138580761Y-103084285D01*
X138628380Y-103227142D01*
X138628380Y-103322380D01*
X138580761Y-103465238D01*
X138485523Y-103560476D01*
X138390285Y-103608095D01*
X138199809Y-103655714D01*
X138056952Y-103655714D01*
X137866476Y-103608095D01*
X137771238Y-103560476D01*
X137676000Y-103465238D01*
X137628380Y-103322380D01*
X137628380Y-103227142D01*
X137676000Y-103084285D01*
X137723619Y-103036666D01*
X137723619Y-102655714D02*
X137676000Y-102608095D01*
X137628380Y-102512857D01*
X137628380Y-102274761D01*
X137676000Y-102179523D01*
X137723619Y-102131904D01*
X137818857Y-102084285D01*
X137914095Y-102084285D01*
X138056952Y-102131904D01*
X138628380Y-102703333D01*
X138628380Y-102084285D01*
X141565333Y-105767142D02*
X141517714Y-105814761D01*
X141374857Y-105862380D01*
X141279619Y-105862380D01*
X141136761Y-105814761D01*
X141041523Y-105719523D01*
X140993904Y-105624285D01*
X140946285Y-105433809D01*
X140946285Y-105290952D01*
X140993904Y-105100476D01*
X141041523Y-105005238D01*
X141136761Y-104910000D01*
X141279619Y-104862380D01*
X141374857Y-104862380D01*
X141517714Y-104910000D01*
X141565333Y-104957619D01*
X142422476Y-105195714D02*
X142422476Y-105862380D01*
X142184380Y-104814761D02*
X141946285Y-105529047D01*
X142565333Y-105529047D01*
X139516380Y-98162166D02*
X139040190Y-98495500D01*
X139516380Y-98733595D02*
X138516380Y-98733595D01*
X138516380Y-98352642D01*
X138564000Y-98257404D01*
X138611619Y-98209785D01*
X138706857Y-98162166D01*
X138849714Y-98162166D01*
X138944952Y-98209785D01*
X138992571Y-98257404D01*
X139040190Y-98352642D01*
X139040190Y-98733595D01*
X138516380Y-97305023D02*
X138516380Y-97495500D01*
X138564000Y-97590738D01*
X138611619Y-97638357D01*
X138754476Y-97733595D01*
X138944952Y-97781214D01*
X139325904Y-97781214D01*
X139421142Y-97733595D01*
X139468761Y-97685976D01*
X139516380Y-97590738D01*
X139516380Y-97400261D01*
X139468761Y-97305023D01*
X139421142Y-97257404D01*
X139325904Y-97209785D01*
X139087809Y-97209785D01*
X138992571Y-97257404D01*
X138944952Y-97305023D01*
X138897333Y-97400261D01*
X138897333Y-97590738D01*
X138944952Y-97685976D01*
X138992571Y-97733595D01*
X139087809Y-97781214D01*
X142344142Y-103561357D02*
X142391761Y-103608976D01*
X142439380Y-103751833D01*
X142439380Y-103847071D01*
X142391761Y-103989928D01*
X142296523Y-104085166D01*
X142201285Y-104132785D01*
X142010809Y-104180404D01*
X141867952Y-104180404D01*
X141677476Y-104132785D01*
X141582238Y-104085166D01*
X141487000Y-103989928D01*
X141439380Y-103847071D01*
X141439380Y-103751833D01*
X141487000Y-103608976D01*
X141534619Y-103561357D01*
X142439380Y-102608976D02*
X142439380Y-103180404D01*
X142439380Y-102894690D02*
X141439380Y-102894690D01*
X141582238Y-102989928D01*
X141677476Y-103085166D01*
X141725095Y-103180404D01*
X141439380Y-101989928D02*
X141439380Y-101894690D01*
X141487000Y-101799452D01*
X141534619Y-101751833D01*
X141629857Y-101704214D01*
X141820333Y-101656595D01*
X142058428Y-101656595D01*
X142248904Y-101704214D01*
X142344142Y-101751833D01*
X142391761Y-101799452D01*
X142439380Y-101894690D01*
X142439380Y-101989928D01*
X142391761Y-102085166D01*
X142344142Y-102132785D01*
X142248904Y-102180404D01*
X142058428Y-102228023D01*
X141820333Y-102228023D01*
X141629857Y-102180404D01*
X141534619Y-102132785D01*
X141487000Y-102085166D01*
X141439380Y-101989928D01*
X141516833Y-100781380D02*
X141183500Y-100305190D01*
X140945404Y-100781380D02*
X140945404Y-99781380D01*
X141326357Y-99781380D01*
X141421595Y-99829000D01*
X141469214Y-99876619D01*
X141516833Y-99971857D01*
X141516833Y-100114714D01*
X141469214Y-100209952D01*
X141421595Y-100257571D01*
X141326357Y-100305190D01*
X140945404Y-100305190D01*
X142373976Y-100114714D02*
X142373976Y-100781380D01*
X142135880Y-99733761D02*
X141897785Y-100448047D01*
X142516833Y-100448047D01*
X144757142Y-98132166D02*
X144804761Y-98179785D01*
X144852380Y-98322642D01*
X144852380Y-98417880D01*
X144804761Y-98560738D01*
X144709523Y-98655976D01*
X144614285Y-98703595D01*
X144423809Y-98751214D01*
X144280952Y-98751214D01*
X144090476Y-98703595D01*
X143995238Y-98655976D01*
X143900000Y-98560738D01*
X143852380Y-98417880D01*
X143852380Y-98322642D01*
X143900000Y-98179785D01*
X143947619Y-98132166D01*
X144852380Y-97179785D02*
X144852380Y-97751214D01*
X144852380Y-97465500D02*
X143852380Y-97465500D01*
X143995238Y-97560738D01*
X144090476Y-97655976D01*
X144138095Y-97751214D01*
X149170380Y-98132166D02*
X148694190Y-98465500D01*
X149170380Y-98703595D02*
X148170380Y-98703595D01*
X148170380Y-98322642D01*
X148218000Y-98227404D01*
X148265619Y-98179785D01*
X148360857Y-98132166D01*
X148503714Y-98132166D01*
X148598952Y-98179785D01*
X148646571Y-98227404D01*
X148694190Y-98322642D01*
X148694190Y-98703595D01*
X148170380Y-97798833D02*
X148170380Y-97179785D01*
X148551333Y-97513119D01*
X148551333Y-97370261D01*
X148598952Y-97275023D01*
X148646571Y-97227404D01*
X148741809Y-97179785D01*
X148979904Y-97179785D01*
X149075142Y-97227404D01*
X149122761Y-97275023D01*
X149170380Y-97370261D01*
X149170380Y-97655976D01*
X149122761Y-97751214D01*
X149075142Y-97798833D01*
X144756142Y-107911166D02*
X144803761Y-107958785D01*
X144851380Y-108101642D01*
X144851380Y-108196880D01*
X144803761Y-108339738D01*
X144708523Y-108434976D01*
X144613285Y-108482595D01*
X144422809Y-108530214D01*
X144279952Y-108530214D01*
X144089476Y-108482595D01*
X143994238Y-108434976D01*
X143899000Y-108339738D01*
X143851380Y-108196880D01*
X143851380Y-108101642D01*
X143899000Y-107958785D01*
X143946619Y-107911166D01*
X144279952Y-107339738D02*
X144232333Y-107434976D01*
X144184714Y-107482595D01*
X144089476Y-107530214D01*
X144041857Y-107530214D01*
X143946619Y-107482595D01*
X143899000Y-107434976D01*
X143851380Y-107339738D01*
X143851380Y-107149261D01*
X143899000Y-107054023D01*
X143946619Y-107006404D01*
X144041857Y-106958785D01*
X144089476Y-106958785D01*
X144184714Y-107006404D01*
X144232333Y-107054023D01*
X144279952Y-107149261D01*
X144279952Y-107339738D01*
X144327571Y-107434976D01*
X144375190Y-107482595D01*
X144470428Y-107530214D01*
X144660904Y-107530214D01*
X144756142Y-107482595D01*
X144803761Y-107434976D01*
X144851380Y-107339738D01*
X144851380Y-107149261D01*
X144803761Y-107054023D01*
X144756142Y-107006404D01*
X144660904Y-106958785D01*
X144470428Y-106958785D01*
X144375190Y-107006404D01*
X144327571Y-107054023D01*
X144279952Y-107149261D01*
X136216380Y-107911166D02*
X135740190Y-108244500D01*
X136216380Y-108482595D02*
X135216380Y-108482595D01*
X135216380Y-108101642D01*
X135264000Y-108006404D01*
X135311619Y-107958785D01*
X135406857Y-107911166D01*
X135549714Y-107911166D01*
X135644952Y-107958785D01*
X135692571Y-108006404D01*
X135740190Y-108101642D01*
X135740190Y-108482595D01*
X136216380Y-106958785D02*
X136216380Y-107530214D01*
X136216380Y-107244500D02*
X135216380Y-107244500D01*
X135359238Y-107339738D01*
X135454476Y-107434976D01*
X135502095Y-107530214D01*
X131898380Y-107911166D02*
X131422190Y-108244500D01*
X131898380Y-108482595D02*
X130898380Y-108482595D01*
X130898380Y-108101642D01*
X130946000Y-108006404D01*
X130993619Y-107958785D01*
X131088857Y-107911166D01*
X131231714Y-107911166D01*
X131326952Y-107958785D01*
X131374571Y-108006404D01*
X131422190Y-108101642D01*
X131422190Y-108482595D01*
X130993619Y-107530214D02*
X130946000Y-107482595D01*
X130898380Y-107387357D01*
X130898380Y-107149261D01*
X130946000Y-107054023D01*
X130993619Y-107006404D01*
X131088857Y-106958785D01*
X131184095Y-106958785D01*
X131326952Y-107006404D01*
X131898380Y-107577833D01*
X131898380Y-106958785D01*
X131770380Y-113245166D02*
X131294190Y-113578500D01*
X131770380Y-113816595D02*
X130770380Y-113816595D01*
X130770380Y-113435642D01*
X130818000Y-113340404D01*
X130865619Y-113292785D01*
X130960857Y-113245166D01*
X131103714Y-113245166D01*
X131198952Y-113292785D01*
X131246571Y-113340404D01*
X131294190Y-113435642D01*
X131294190Y-113816595D01*
X130770380Y-112911833D02*
X130770380Y-112245166D01*
X131770380Y-112673738D01*
X131803142Y-103085166D02*
X131850761Y-103132785D01*
X131898380Y-103275642D01*
X131898380Y-103370880D01*
X131850761Y-103513738D01*
X131755523Y-103608976D01*
X131660285Y-103656595D01*
X131469809Y-103704214D01*
X131326952Y-103704214D01*
X131136476Y-103656595D01*
X131041238Y-103608976D01*
X130946000Y-103513738D01*
X130898380Y-103370880D01*
X130898380Y-103275642D01*
X130946000Y-103132785D01*
X130993619Y-103085166D01*
X130898380Y-102180404D02*
X130898380Y-102656595D01*
X131374571Y-102704214D01*
X131326952Y-102656595D01*
X131279333Y-102561357D01*
X131279333Y-102323261D01*
X131326952Y-102228023D01*
X131374571Y-102180404D01*
X131469809Y-102132785D01*
X131707904Y-102132785D01*
X131803142Y-102180404D01*
X131850761Y-102228023D01*
X131898380Y-102323261D01*
X131898380Y-102561357D01*
X131850761Y-102656595D01*
X131803142Y-102704214D01*
X151788904Y-96768880D02*
X151788904Y-95768880D01*
X152027000Y-95768880D01*
X152169857Y-95816500D01*
X152265095Y-95911738D01*
X152312714Y-96006976D01*
X152360333Y-96197452D01*
X152360333Y-96340309D01*
X152312714Y-96530785D01*
X152265095Y-96626023D01*
X152169857Y-96721261D01*
X152027000Y-96768880D01*
X151788904Y-96768880D01*
X153312714Y-96768880D02*
X152741285Y-96768880D01*
X153027000Y-96768880D02*
X153027000Y-95768880D01*
X152931761Y-95911738D01*
X152836523Y-96006976D01*
X152741285Y-96054595D01*
X130603666Y-96226380D02*
X130603666Y-96940666D01*
X130556047Y-97083523D01*
X130460809Y-97178761D01*
X130317952Y-97226380D01*
X130222714Y-97226380D01*
X131032238Y-96321619D02*
X131079857Y-96274000D01*
X131175095Y-96226380D01*
X131413190Y-96226380D01*
X131508428Y-96274000D01*
X131556047Y-96321619D01*
X131603666Y-96416857D01*
X131603666Y-96512095D01*
X131556047Y-96654952D01*
X130984619Y-97226380D01*
X131603666Y-97226380D01*
X135231142Y-98083666D02*
X135278761Y-98131285D01*
X135326380Y-98274142D01*
X135326380Y-98369380D01*
X135278761Y-98512238D01*
X135183523Y-98607476D01*
X135088285Y-98655095D01*
X134897809Y-98702714D01*
X134754952Y-98702714D01*
X134564476Y-98655095D01*
X134469238Y-98607476D01*
X134374000Y-98512238D01*
X134326380Y-98369380D01*
X134326380Y-98274142D01*
X134374000Y-98131285D01*
X134421619Y-98083666D01*
X134326380Y-97750333D02*
X134326380Y-97131285D01*
X134707333Y-97464619D01*
X134707333Y-97321761D01*
X134754952Y-97226523D01*
X134802571Y-97178904D01*
X134897809Y-97131285D01*
X135135904Y-97131285D01*
X135231142Y-97178904D01*
X135278761Y-97226523D01*
X135326380Y-97321761D01*
X135326380Y-97607476D01*
X135278761Y-97702714D01*
X135231142Y-97750333D01*
X152598380Y-113226666D02*
X152598380Y-113702857D01*
X151598380Y-113702857D01*
X152598380Y-112369523D02*
X152598380Y-112940952D01*
X152598380Y-112655238D02*
X151598380Y-112655238D01*
X151741238Y-112750476D01*
X151836476Y-112845714D01*
X151884095Y-112940952D01*
X141271666Y-96099380D02*
X141271666Y-96813666D01*
X141224047Y-96956523D01*
X141128809Y-97051761D01*
X140985952Y-97099380D01*
X140890714Y-97099380D01*
X142271666Y-97099380D02*
X141700238Y-97099380D01*
X141985952Y-97099380D02*
X141985952Y-96099380D01*
X141890714Y-96242238D01*
X141795476Y-96337476D01*
X141700238Y-96385095D01*
X146939095Y-104862380D02*
X146939095Y-105671904D01*
X146986714Y-105767142D01*
X147034333Y-105814761D01*
X147129571Y-105862380D01*
X147320047Y-105862380D01*
X147415285Y-105814761D01*
X147462904Y-105767142D01*
X147510523Y-105671904D01*
X147510523Y-104862380D01*
X148510523Y-105862380D02*
X147939095Y-105862380D01*
X148224809Y-105862380D02*
X148224809Y-104862380D01*
X148129571Y-105005238D01*
X148034333Y-105100476D01*
X147939095Y-105148095D01*
X135472026Y-111149521D02*
X136044446Y-111721941D01*
X136145461Y-111755613D01*
X136212805Y-111755613D01*
X136313820Y-111721941D01*
X136448507Y-111587254D01*
X136482179Y-111486239D01*
X136482179Y-111418895D01*
X136448507Y-111317880D01*
X135876087Y-110745460D01*
X136246477Y-110509758D02*
X136246477Y-110442415D01*
X136280148Y-110341399D01*
X136448507Y-110173041D01*
X136549522Y-110139369D01*
X136616866Y-110139369D01*
X136717881Y-110173041D01*
X136785225Y-110240384D01*
X136852568Y-110375071D01*
X136852568Y-111183193D01*
X137290301Y-110745460D01*
X135201095Y-104716380D02*
X135201095Y-105525904D01*
X135248714Y-105621142D01*
X135296333Y-105668761D01*
X135391571Y-105716380D01*
X135582047Y-105716380D01*
X135677285Y-105668761D01*
X135724904Y-105621142D01*
X135772523Y-105525904D01*
X135772523Y-104716380D01*
X136153476Y-104716380D02*
X136772523Y-104716380D01*
X136439190Y-105097333D01*
X136582047Y-105097333D01*
X136677285Y-105144952D01*
X136724904Y-105192571D01*
X136772523Y-105287809D01*
X136772523Y-105525904D01*
X136724904Y-105621142D01*
X136677285Y-105668761D01*
X136582047Y-105716380D01*
X136296333Y-105716380D01*
X136201095Y-105668761D01*
X136153476Y-105621142D01*
M02*
