G04 #@! TF.GenerationSoftware,KiCad,Pcbnew,(5.1.5)-3*
G04 #@! TF.CreationDate,2020-02-07T15:38:24-08:00*
G04 #@! TF.ProjectId,pcb,7063622e-6b69-4636-9164-5f7063625858,v1.1*
G04 #@! TF.SameCoordinates,Original*
G04 #@! TF.FileFunction,Legend,Bot*
G04 #@! TF.FilePolarity,Positive*
%FSLAX46Y46*%
G04 Gerber Fmt 4.6, Leading zero omitted, Abs format (unit mm)*
G04 Created by KiCad (PCBNEW (5.1.5)-3) date 2020-02-07 15:38:24*
%MOMM*%
%LPD*%
G04 APERTURE LIST*
%ADD10C,0.300000*%
%ADD11C,0.127000*%
%ADD12C,0.120000*%
%ADD13C,0.150000*%
G04 APERTURE END LIST*
D10*
X150164857Y-90719285D02*
X151079142Y-90719285D01*
X150622000Y-90262142D02*
X150622000Y-91176428D01*
D11*
X142167428Y-89716428D02*
X142058571Y-89752714D01*
X141877142Y-89752714D01*
X141804571Y-89716428D01*
X141768285Y-89680142D01*
X141732000Y-89607571D01*
X141732000Y-89535000D01*
X141768285Y-89462428D01*
X141804571Y-89426142D01*
X141877142Y-89389857D01*
X142022285Y-89353571D01*
X142094857Y-89317285D01*
X142131142Y-89281000D01*
X142167428Y-89208428D01*
X142167428Y-89135857D01*
X142131142Y-89063285D01*
X142094857Y-89027000D01*
X142022285Y-88990714D01*
X141840857Y-88990714D01*
X141732000Y-89027000D01*
X141478000Y-88990714D02*
X141296571Y-89752714D01*
X141151428Y-89208428D01*
X141006285Y-89752714D01*
X140824857Y-88990714D01*
X140534571Y-89752714D02*
X140534571Y-88990714D01*
X140353142Y-88990714D01*
X140244285Y-89027000D01*
X140171714Y-89099571D01*
X140135428Y-89172142D01*
X140099142Y-89317285D01*
X140099142Y-89426142D01*
X140135428Y-89571285D01*
X140171714Y-89643857D01*
X140244285Y-89716428D01*
X140353142Y-89752714D01*
X140534571Y-89752714D01*
X139772571Y-89752714D02*
X139772571Y-88990714D01*
X139264571Y-88990714D02*
X139119428Y-88990714D01*
X139046857Y-89027000D01*
X138974285Y-89099571D01*
X138938000Y-89244714D01*
X138938000Y-89498714D01*
X138974285Y-89643857D01*
X139046857Y-89716428D01*
X139119428Y-89752714D01*
X139264571Y-89752714D01*
X139337142Y-89716428D01*
X139409714Y-89643857D01*
X139446000Y-89498714D01*
X139446000Y-89244714D01*
X139409714Y-89099571D01*
X139337142Y-89027000D01*
X139264571Y-88990714D01*
X137559142Y-88990714D02*
X137305142Y-89752714D01*
X137051142Y-88990714D01*
X136361714Y-89752714D02*
X136615714Y-89389857D01*
X136797142Y-89752714D02*
X136797142Y-88990714D01*
X136506857Y-88990714D01*
X136434285Y-89027000D01*
X136398000Y-89063285D01*
X136361714Y-89135857D01*
X136361714Y-89244714D01*
X136398000Y-89317285D01*
X136434285Y-89353571D01*
X136506857Y-89389857D01*
X136797142Y-89389857D01*
X136035142Y-89353571D02*
X135781142Y-89353571D01*
X135672285Y-89752714D02*
X136035142Y-89752714D01*
X136035142Y-88990714D01*
X135672285Y-88990714D01*
X135091714Y-89353571D02*
X135345714Y-89353571D01*
X135345714Y-89752714D02*
X135345714Y-88990714D01*
X134982857Y-88990714D01*
X142330714Y-90986428D02*
X142221857Y-91022714D01*
X142040428Y-91022714D01*
X141967857Y-90986428D01*
X141931571Y-90950142D01*
X141895285Y-90877571D01*
X141895285Y-90805000D01*
X141931571Y-90732428D01*
X141967857Y-90696142D01*
X142040428Y-90659857D01*
X142185571Y-90623571D01*
X142258142Y-90587285D01*
X142294428Y-90551000D01*
X142330714Y-90478428D01*
X142330714Y-90405857D01*
X142294428Y-90333285D01*
X142258142Y-90297000D01*
X142185571Y-90260714D01*
X142004142Y-90260714D01*
X141895285Y-90297000D01*
X141641285Y-90260714D02*
X141459857Y-91022714D01*
X141314714Y-90478428D01*
X141169571Y-91022714D01*
X140988142Y-90260714D01*
X140262428Y-90950142D02*
X140298714Y-90986428D01*
X140407571Y-91022714D01*
X140480142Y-91022714D01*
X140589000Y-90986428D01*
X140661571Y-90913857D01*
X140697857Y-90841285D01*
X140734142Y-90696142D01*
X140734142Y-90587285D01*
X140697857Y-90442142D01*
X140661571Y-90369571D01*
X140589000Y-90297000D01*
X140480142Y-90260714D01*
X140407571Y-90260714D01*
X140298714Y-90297000D01*
X140262428Y-90333285D01*
X139573000Y-91022714D02*
X139935857Y-91022714D01*
X139935857Y-90260714D01*
X139319000Y-91022714D02*
X139319000Y-90260714D01*
X138883571Y-91022714D02*
X139210142Y-90587285D01*
X138883571Y-90260714D02*
X139319000Y-90696142D01*
X137577285Y-89964260D02*
X136815285Y-89964260D01*
X136960428Y-91022714D02*
X137214428Y-90659857D01*
X137395857Y-91022714D02*
X137395857Y-90260714D01*
X137105571Y-90260714D01*
X137033000Y-90297000D01*
X136996714Y-90333285D01*
X136960428Y-90405857D01*
X136960428Y-90514714D01*
X136996714Y-90587285D01*
X137033000Y-90623571D01*
X137105571Y-90659857D01*
X137395857Y-90659857D01*
X136815285Y-89964260D02*
X136125857Y-89964260D01*
X136633857Y-90623571D02*
X136379857Y-90623571D01*
X136271000Y-91022714D02*
X136633857Y-91022714D01*
X136633857Y-90260714D01*
X136271000Y-90260714D01*
X136125857Y-89964260D02*
X135400142Y-89964260D01*
X135980714Y-90986428D02*
X135871857Y-91022714D01*
X135690428Y-91022714D01*
X135617857Y-90986428D01*
X135581571Y-90950142D01*
X135545285Y-90877571D01*
X135545285Y-90805000D01*
X135581571Y-90732428D01*
X135617857Y-90696142D01*
X135690428Y-90659857D01*
X135835571Y-90623571D01*
X135908142Y-90587285D01*
X135944428Y-90551000D01*
X135980714Y-90478428D01*
X135980714Y-90405857D01*
X135944428Y-90333285D01*
X135908142Y-90297000D01*
X135835571Y-90260714D01*
X135654142Y-90260714D01*
X135545285Y-90297000D01*
X135400142Y-89964260D02*
X134710714Y-89964260D01*
X135218714Y-90623571D02*
X134964714Y-90623571D01*
X134855857Y-91022714D02*
X135218714Y-91022714D01*
X135218714Y-90260714D01*
X134855857Y-90260714D01*
X134710714Y-89964260D02*
X134130142Y-89964260D01*
X134638142Y-90260714D02*
X134202714Y-90260714D01*
X134420428Y-91022714D02*
X134420428Y-90260714D01*
X140062857Y-92292714D02*
X140062857Y-91530714D01*
X139627428Y-92292714D01*
X139627428Y-91530714D01*
X138829142Y-92220142D02*
X138865428Y-92256428D01*
X138974285Y-92292714D01*
X139046857Y-92292714D01*
X139155714Y-92256428D01*
X139228285Y-92183857D01*
X139264571Y-92111285D01*
X139300857Y-91966142D01*
X139300857Y-91857285D01*
X139264571Y-91712142D01*
X139228285Y-91639571D01*
X139155714Y-91567000D01*
X139046857Y-91530714D01*
X138974285Y-91530714D01*
X138865428Y-91567000D01*
X138829142Y-91603285D01*
X136942285Y-91567000D02*
X137014857Y-91530714D01*
X137123714Y-91530714D01*
X137232571Y-91567000D01*
X137305142Y-91639571D01*
X137341428Y-91712142D01*
X137377714Y-91857285D01*
X137377714Y-91966142D01*
X137341428Y-92111285D01*
X137305142Y-92183857D01*
X137232571Y-92256428D01*
X137123714Y-92292714D01*
X137051142Y-92292714D01*
X136942285Y-92256428D01*
X136906000Y-92220142D01*
X136906000Y-91966142D01*
X137051142Y-91966142D01*
X136579428Y-92292714D02*
X136579428Y-91530714D01*
X136144000Y-92292714D01*
X136144000Y-91530714D01*
X135781142Y-92292714D02*
X135781142Y-91530714D01*
X135599714Y-91530714D01*
X135490857Y-91567000D01*
X135418285Y-91639571D01*
X135382000Y-91712142D01*
X135345714Y-91857285D01*
X135345714Y-91966142D01*
X135382000Y-92111285D01*
X135418285Y-92183857D01*
X135490857Y-92256428D01*
X135599714Y-92292714D01*
X135781142Y-92292714D01*
D12*
X131896000Y-109912000D02*
X134296000Y-109912000D01*
X131896000Y-107512000D02*
X131896000Y-109912000D01*
X134296000Y-107512000D02*
X131896000Y-107512000D01*
X134296000Y-109912000D02*
X134296000Y-107512000D01*
X131896000Y-114992000D02*
X134296000Y-114992000D01*
X131896000Y-112592000D02*
X131896000Y-114992000D01*
X134296000Y-112592000D02*
X131896000Y-112592000D01*
X134296000Y-114992000D02*
X134296000Y-112592000D01*
X149168000Y-114992000D02*
X151568000Y-114992000D01*
X149168000Y-112592000D02*
X149168000Y-114992000D01*
X151568000Y-112592000D02*
X149168000Y-112592000D01*
X151568000Y-114992000D02*
X151568000Y-112592000D01*
X149168000Y-109912000D02*
X151568000Y-109912000D01*
X149168000Y-107512000D02*
X149168000Y-109912000D01*
X151568000Y-107512000D02*
X149168000Y-107512000D01*
X151568000Y-109912000D02*
X151568000Y-107512000D01*
X149168000Y-104832000D02*
X151568000Y-104832000D01*
X149168000Y-102432000D02*
X149168000Y-104832000D01*
X151568000Y-102432000D02*
X149168000Y-102432000D01*
X151568000Y-104832000D02*
X151568000Y-102432000D01*
X131896000Y-104832000D02*
X134296000Y-104832000D01*
X131896000Y-102432000D02*
X131896000Y-104832000D01*
X134296000Y-102432000D02*
X131896000Y-102432000D01*
X134296000Y-104832000D02*
X134296000Y-102432000D01*
X131896000Y-99752000D02*
X134296000Y-99752000D01*
X131896000Y-97352000D02*
X131896000Y-99752000D01*
X134296000Y-97352000D02*
X131896000Y-97352000D01*
X134296000Y-99752000D02*
X134296000Y-97352000D01*
X149168000Y-99752000D02*
X151568000Y-99752000D01*
X149168000Y-97352000D02*
X149168000Y-99752000D01*
X151568000Y-97352000D02*
X149168000Y-97352000D01*
X151568000Y-99752000D02*
X151568000Y-97352000D01*
X153102000Y-95818000D02*
X154432000Y-95818000D01*
X153102000Y-94488000D02*
X153102000Y-95818000D01*
X153102000Y-93218000D02*
X155762000Y-93218000D01*
X155762000Y-93218000D02*
X155762000Y-90618000D01*
X153102000Y-93218000D02*
X153102000Y-90618000D01*
X153102000Y-90618000D02*
X155762000Y-90618000D01*
X155762000Y-88078000D02*
X155762000Y-90738000D01*
X153162000Y-88078000D02*
X155762000Y-88078000D01*
X153162000Y-90738000D02*
X155762000Y-90738000D01*
X153162000Y-88078000D02*
X153162000Y-90738000D01*
X151892000Y-88078000D02*
X150562000Y-88078000D01*
X150562000Y-88078000D02*
X150562000Y-89408000D01*
D13*
X134546380Y-107450095D02*
X134546380Y-108021523D01*
X135546380Y-107735809D02*
X134546380Y-107735809D01*
X135546380Y-108354857D02*
X134546380Y-108354857D01*
X134546380Y-108735809D01*
X134594000Y-108831047D01*
X134641619Y-108878666D01*
X134736857Y-108926285D01*
X134879714Y-108926285D01*
X134974952Y-108878666D01*
X135022571Y-108831047D01*
X135070190Y-108735809D01*
X135070190Y-108354857D01*
X134974952Y-109497714D02*
X134927333Y-109402476D01*
X134879714Y-109354857D01*
X134784476Y-109307238D01*
X134736857Y-109307238D01*
X134641619Y-109354857D01*
X134594000Y-109402476D01*
X134546380Y-109497714D01*
X134546380Y-109688190D01*
X134594000Y-109783428D01*
X134641619Y-109831047D01*
X134736857Y-109878666D01*
X134784476Y-109878666D01*
X134879714Y-109831047D01*
X134927333Y-109783428D01*
X134974952Y-109688190D01*
X134974952Y-109497714D01*
X135022571Y-109402476D01*
X135070190Y-109354857D01*
X135165428Y-109307238D01*
X135355904Y-109307238D01*
X135451142Y-109354857D01*
X135498761Y-109402476D01*
X135546380Y-109497714D01*
X135546380Y-109688190D01*
X135498761Y-109783428D01*
X135451142Y-109831047D01*
X135355904Y-109878666D01*
X135165428Y-109878666D01*
X135070190Y-109831047D01*
X135022571Y-109783428D01*
X134974952Y-109688190D01*
X134546380Y-112530095D02*
X134546380Y-113101523D01*
X135546380Y-112815809D02*
X134546380Y-112815809D01*
X135546380Y-113434857D02*
X134546380Y-113434857D01*
X134546380Y-113815809D01*
X134594000Y-113911047D01*
X134641619Y-113958666D01*
X134736857Y-114006285D01*
X134879714Y-114006285D01*
X134974952Y-113958666D01*
X135022571Y-113911047D01*
X135070190Y-113815809D01*
X135070190Y-113434857D01*
X134546380Y-114339619D02*
X134546380Y-115006285D01*
X135546380Y-114577714D01*
X151818380Y-112530095D02*
X151818380Y-113101523D01*
X152818380Y-112815809D02*
X151818380Y-112815809D01*
X152818380Y-113434857D02*
X151818380Y-113434857D01*
X151818380Y-113815809D01*
X151866000Y-113911047D01*
X151913619Y-113958666D01*
X152008857Y-114006285D01*
X152151714Y-114006285D01*
X152246952Y-113958666D01*
X152294571Y-113911047D01*
X152342190Y-113815809D01*
X152342190Y-113434857D01*
X151818380Y-114863428D02*
X151818380Y-114672952D01*
X151866000Y-114577714D01*
X151913619Y-114530095D01*
X152056476Y-114434857D01*
X152246952Y-114387238D01*
X152627904Y-114387238D01*
X152723142Y-114434857D01*
X152770761Y-114482476D01*
X152818380Y-114577714D01*
X152818380Y-114768190D01*
X152770761Y-114863428D01*
X152723142Y-114911047D01*
X152627904Y-114958666D01*
X152389809Y-114958666D01*
X152294571Y-114911047D01*
X152246952Y-114863428D01*
X152199333Y-114768190D01*
X152199333Y-114577714D01*
X152246952Y-114482476D01*
X152294571Y-114434857D01*
X152389809Y-114387238D01*
X151818380Y-107450095D02*
X151818380Y-108021523D01*
X152818380Y-107735809D02*
X151818380Y-107735809D01*
X152818380Y-108354857D02*
X151818380Y-108354857D01*
X151818380Y-108735809D01*
X151866000Y-108831047D01*
X151913619Y-108878666D01*
X152008857Y-108926285D01*
X152151714Y-108926285D01*
X152246952Y-108878666D01*
X152294571Y-108831047D01*
X152342190Y-108735809D01*
X152342190Y-108354857D01*
X151818380Y-109831047D02*
X151818380Y-109354857D01*
X152294571Y-109307238D01*
X152246952Y-109354857D01*
X152199333Y-109450095D01*
X152199333Y-109688190D01*
X152246952Y-109783428D01*
X152294571Y-109831047D01*
X152389809Y-109878666D01*
X152627904Y-109878666D01*
X152723142Y-109831047D01*
X152770761Y-109783428D01*
X152818380Y-109688190D01*
X152818380Y-109450095D01*
X152770761Y-109354857D01*
X152723142Y-109307238D01*
X151818380Y-102370095D02*
X151818380Y-102941523D01*
X152818380Y-102655809D02*
X151818380Y-102655809D01*
X152818380Y-103274857D02*
X151818380Y-103274857D01*
X151818380Y-103655809D01*
X151866000Y-103751047D01*
X151913619Y-103798666D01*
X152008857Y-103846285D01*
X152151714Y-103846285D01*
X152246952Y-103798666D01*
X152294571Y-103751047D01*
X152342190Y-103655809D01*
X152342190Y-103274857D01*
X152151714Y-104703428D02*
X152818380Y-104703428D01*
X151770761Y-104465333D02*
X152485047Y-104227238D01*
X152485047Y-104846285D01*
X134546380Y-102370095D02*
X134546380Y-102941523D01*
X135546380Y-102655809D02*
X134546380Y-102655809D01*
X135546380Y-103274857D02*
X134546380Y-103274857D01*
X134546380Y-103655809D01*
X134594000Y-103751047D01*
X134641619Y-103798666D01*
X134736857Y-103846285D01*
X134879714Y-103846285D01*
X134974952Y-103798666D01*
X135022571Y-103751047D01*
X135070190Y-103655809D01*
X135070190Y-103274857D01*
X134546380Y-104179619D02*
X134546380Y-104798666D01*
X134927333Y-104465333D01*
X134927333Y-104608190D01*
X134974952Y-104703428D01*
X135022571Y-104751047D01*
X135117809Y-104798666D01*
X135355904Y-104798666D01*
X135451142Y-104751047D01*
X135498761Y-104703428D01*
X135546380Y-104608190D01*
X135546380Y-104322476D01*
X135498761Y-104227238D01*
X135451142Y-104179619D01*
X134546380Y-97290095D02*
X134546380Y-97861523D01*
X135546380Y-97575809D02*
X134546380Y-97575809D01*
X135546380Y-98194857D02*
X134546380Y-98194857D01*
X134546380Y-98575809D01*
X134594000Y-98671047D01*
X134641619Y-98718666D01*
X134736857Y-98766285D01*
X134879714Y-98766285D01*
X134974952Y-98718666D01*
X135022571Y-98671047D01*
X135070190Y-98575809D01*
X135070190Y-98194857D01*
X135546380Y-99718666D02*
X135546380Y-99147238D01*
X135546380Y-99432952D02*
X134546380Y-99432952D01*
X134689238Y-99337714D01*
X134784476Y-99242476D01*
X134832095Y-99147238D01*
X151818380Y-97290095D02*
X151818380Y-97861523D01*
X152818380Y-97575809D02*
X151818380Y-97575809D01*
X152818380Y-98194857D02*
X151818380Y-98194857D01*
X151818380Y-98575809D01*
X151866000Y-98671047D01*
X151913619Y-98718666D01*
X152008857Y-98766285D01*
X152151714Y-98766285D01*
X152246952Y-98718666D01*
X152294571Y-98671047D01*
X152342190Y-98575809D01*
X152342190Y-98194857D01*
X151913619Y-99147238D02*
X151866000Y-99194857D01*
X151818380Y-99290095D01*
X151818380Y-99528190D01*
X151866000Y-99623428D01*
X151913619Y-99671047D01*
X152008857Y-99718666D01*
X152104095Y-99718666D01*
X152246952Y-99671047D01*
X152818380Y-99099619D01*
X152818380Y-99718666D01*
X152669714Y-93940380D02*
X152098285Y-93940380D01*
X152384000Y-94940380D02*
X152384000Y-93940380D01*
X151764952Y-94940380D02*
X151764952Y-93940380D01*
X151764952Y-94416571D02*
X151193523Y-94416571D01*
X151193523Y-94940380D02*
X151193523Y-93940380D01*
X150193523Y-94940380D02*
X150764952Y-94940380D01*
X150479238Y-94940380D02*
X150479238Y-93940380D01*
X150574476Y-94083238D01*
X150669714Y-94178476D01*
X150764952Y-94226095D01*
X149756714Y-89336571D02*
X149613857Y-89384190D01*
X149566238Y-89431809D01*
X149518619Y-89527047D01*
X149518619Y-89669904D01*
X149566238Y-89765142D01*
X149613857Y-89812761D01*
X149709095Y-89860380D01*
X150090047Y-89860380D01*
X150090047Y-88860380D01*
X149756714Y-88860380D01*
X149661476Y-88908000D01*
X149613857Y-88955619D01*
X149566238Y-89050857D01*
X149566238Y-89146095D01*
X149613857Y-89241333D01*
X149661476Y-89288952D01*
X149756714Y-89336571D01*
X150090047Y-89336571D01*
X149232904Y-88860380D02*
X148661476Y-88860380D01*
X148947190Y-89860380D02*
X148947190Y-88860380D01*
X147804333Y-89860380D02*
X148375761Y-89860380D01*
X148090047Y-89860380D02*
X148090047Y-88860380D01*
X148185285Y-89003238D01*
X148280523Y-89098476D01*
X148375761Y-89146095D01*
M02*
