M48
; DRILL file {KiCad (5.1.5)-3} date 2/7/2020 3:37:05 PM
; FORMAT={-:-/ absolute / inch / decimal}
; #@! TF.CreationDate,2020-02-07T15:37:05-08:00
; #@! TF.GenerationSoftware,Kicad,Pcbnew,(5.1.5)-3
; #@! TF.FileFunction,Plated,1,2,PTH
FMAT,2
INCH
T1C0.0100
T2C0.0300
T3C0.0394
%
G90
G05
T1
X5.19Y-4.155
X5.295Y-4.0574
X5.2971Y-3.9779
X5.3344Y-4.2842
X5.355Y-3.845
X5.36Y-4.288
X5.405Y-4.13
X5.415Y-4.335
X5.45Y-4.005
X5.5159Y-3.8159
X5.5364Y-4.4072
X5.54Y-3.83
X5.555Y-4.065
X5.57Y-4.415
X5.575Y-4.825
X5.605Y-4.28
X5.6241Y-3.695
X5.64Y-4.135
X5.645Y-4.42
X5.65Y-3.695
X5.6594Y-4.4416
X5.68Y-3.92
X5.695Y-4.0523
X5.705Y-4.005
X5.73Y-4.6
X5.7311Y-4.16
X5.745Y-4.51
X5.7501Y-4.5583
X5.765Y-4.16
X5.7796Y-4.3899
X5.78Y-4.78
X5.7817Y-4.6081
X5.79Y-4.55
X5.805Y-3.855
X5.81Y-4.8
X5.815Y-3.825
X5.825Y-4.19
X5.8284Y-3.9434
X5.83Y-3.97
X5.87Y-4.545
X5.88Y-4.17
X5.9032Y-4.1584
X5.9307Y-4.541
X5.995Y-3.83
X6.03Y-3.835
T2
X5.08Y-3.82
X5.08Y-3.92
X5.08Y-4.02
X5.08Y-4.12
X5.08Y-4.22
X5.08Y-4.32
X5.08Y-4.42
X5.08Y-4.52
X5.08Y-4.62
X5.08Y-4.72
X5.08Y-4.82
X5.08Y-4.92
X6.08Y-3.82
X6.08Y-3.92
X6.08Y-4.02
X6.08Y-4.12
X6.08Y-4.22
X6.08Y-4.32
X6.08Y-4.42
X6.08Y-4.52
X6.08Y-4.62
X6.08Y-4.72
X6.08Y-4.82
X6.08Y-4.92
T3
X5.08Y-3.52
X5.08Y-3.62
X5.08Y-3.72
X5.18Y-3.52
X5.18Y-3.62
X5.18Y-3.72
X6.08Y-3.62
X6.08Y-3.72
X5.98Y-3.52
X6.08Y-3.52
T0
M30
