G04 #@! TF.GenerationSoftware,KiCad,Pcbnew,(5.1.5)-3*
G04 #@! TF.CreationDate,2020-02-07T15:38:24-08:00*
G04 #@! TF.ProjectId,pcb,7063622e-6b69-4636-9164-5f7063625858,v1.1*
G04 #@! TF.SameCoordinates,Original*
G04 #@! TF.FileFunction,Soldermask,Bot*
G04 #@! TF.FilePolarity,Negative*
%FSLAX46Y46*%
G04 Gerber Fmt 4.6, Leading zero omitted, Abs format (unit mm)*
G04 Created by KiCad (PCBNEW (5.1.5)-3) date 2020-02-07 15:38:24*
%MOMM*%
%LPD*%
G04 APERTURE LIST*
%ADD10C,0.100000*%
G04 APERTURE END LIST*
D10*
G36*
X155245000Y-125781000D02*
G01*
X153619000Y-125781000D01*
X153619000Y-124155000D01*
X155245000Y-124155000D01*
X155245000Y-125781000D01*
G37*
G36*
X129269144Y-124186243D02*
G01*
X129417100Y-124247528D01*
X129550259Y-124336502D01*
X129663498Y-124449741D01*
X129752472Y-124582900D01*
X129813757Y-124730856D01*
X129845000Y-124887926D01*
X129845000Y-125048074D01*
X129813757Y-125205144D01*
X129752472Y-125353100D01*
X129663498Y-125486259D01*
X129550259Y-125599498D01*
X129417100Y-125688472D01*
X129269144Y-125749757D01*
X129112074Y-125781000D01*
X128951926Y-125781000D01*
X128794856Y-125749757D01*
X128646900Y-125688472D01*
X128513741Y-125599498D01*
X128400502Y-125486259D01*
X128311528Y-125353100D01*
X128250243Y-125205144D01*
X128219000Y-125048074D01*
X128219000Y-124887926D01*
X128250243Y-124730856D01*
X128311528Y-124582900D01*
X128400502Y-124449741D01*
X128513741Y-124336502D01*
X128646900Y-124247528D01*
X128794856Y-124186243D01*
X128951926Y-124155000D01*
X129112074Y-124155000D01*
X129269144Y-124186243D01*
G37*
G36*
X154669144Y-121646243D02*
G01*
X154817100Y-121707528D01*
X154950259Y-121796502D01*
X155063498Y-121909741D01*
X155152472Y-122042900D01*
X155213757Y-122190856D01*
X155245000Y-122347926D01*
X155245000Y-122508074D01*
X155213757Y-122665144D01*
X155152472Y-122813100D01*
X155063498Y-122946259D01*
X154950259Y-123059498D01*
X154817100Y-123148472D01*
X154669144Y-123209757D01*
X154512074Y-123241000D01*
X154351926Y-123241000D01*
X154194856Y-123209757D01*
X154046900Y-123148472D01*
X153913741Y-123059498D01*
X153800502Y-122946259D01*
X153711528Y-122813100D01*
X153650243Y-122665144D01*
X153619000Y-122508074D01*
X153619000Y-122347926D01*
X153650243Y-122190856D01*
X153711528Y-122042900D01*
X153800502Y-121909741D01*
X153913741Y-121796502D01*
X154046900Y-121707528D01*
X154194856Y-121646243D01*
X154351926Y-121615000D01*
X154512074Y-121615000D01*
X154669144Y-121646243D01*
G37*
G36*
X129269144Y-121646243D02*
G01*
X129417100Y-121707528D01*
X129550259Y-121796502D01*
X129663498Y-121909741D01*
X129752472Y-122042900D01*
X129813757Y-122190856D01*
X129845000Y-122347926D01*
X129845000Y-122508074D01*
X129813757Y-122665144D01*
X129752472Y-122813100D01*
X129663498Y-122946259D01*
X129550259Y-123059498D01*
X129417100Y-123148472D01*
X129269144Y-123209757D01*
X129112074Y-123241000D01*
X128951926Y-123241000D01*
X128794856Y-123209757D01*
X128646900Y-123148472D01*
X128513741Y-123059498D01*
X128400502Y-122946259D01*
X128311528Y-122813100D01*
X128250243Y-122665144D01*
X128219000Y-122508074D01*
X128219000Y-122347926D01*
X128250243Y-122190856D01*
X128311528Y-122042900D01*
X128400502Y-121909741D01*
X128513741Y-121796502D01*
X128646900Y-121707528D01*
X128794856Y-121646243D01*
X128951926Y-121615000D01*
X129112074Y-121615000D01*
X129269144Y-121646243D01*
G37*
G36*
X154669144Y-119106243D02*
G01*
X154817100Y-119167528D01*
X154950259Y-119256502D01*
X155063498Y-119369741D01*
X155152472Y-119502900D01*
X155213757Y-119650856D01*
X155245000Y-119807926D01*
X155245000Y-119968074D01*
X155213757Y-120125144D01*
X155152472Y-120273100D01*
X155063498Y-120406259D01*
X154950259Y-120519498D01*
X154817100Y-120608472D01*
X154669144Y-120669757D01*
X154512074Y-120701000D01*
X154351926Y-120701000D01*
X154194856Y-120669757D01*
X154046900Y-120608472D01*
X153913741Y-120519498D01*
X153800502Y-120406259D01*
X153711528Y-120273100D01*
X153650243Y-120125144D01*
X153619000Y-119968074D01*
X153619000Y-119807926D01*
X153650243Y-119650856D01*
X153711528Y-119502900D01*
X153800502Y-119369741D01*
X153913741Y-119256502D01*
X154046900Y-119167528D01*
X154194856Y-119106243D01*
X154351926Y-119075000D01*
X154512074Y-119075000D01*
X154669144Y-119106243D01*
G37*
G36*
X129269144Y-119106243D02*
G01*
X129417100Y-119167528D01*
X129550259Y-119256502D01*
X129663498Y-119369741D01*
X129752472Y-119502900D01*
X129813757Y-119650856D01*
X129845000Y-119807926D01*
X129845000Y-119968074D01*
X129813757Y-120125144D01*
X129752472Y-120273100D01*
X129663498Y-120406259D01*
X129550259Y-120519498D01*
X129417100Y-120608472D01*
X129269144Y-120669757D01*
X129112074Y-120701000D01*
X128951926Y-120701000D01*
X128794856Y-120669757D01*
X128646900Y-120608472D01*
X128513741Y-120519498D01*
X128400502Y-120406259D01*
X128311528Y-120273100D01*
X128250243Y-120125144D01*
X128219000Y-119968074D01*
X128219000Y-119807926D01*
X128250243Y-119650856D01*
X128311528Y-119502900D01*
X128400502Y-119369741D01*
X128513741Y-119256502D01*
X128646900Y-119167528D01*
X128794856Y-119106243D01*
X128951926Y-119075000D01*
X129112074Y-119075000D01*
X129269144Y-119106243D01*
G37*
G36*
X154669144Y-116566243D02*
G01*
X154817100Y-116627528D01*
X154950259Y-116716502D01*
X155063498Y-116829741D01*
X155152472Y-116962900D01*
X155213757Y-117110856D01*
X155245000Y-117267926D01*
X155245000Y-117428074D01*
X155213757Y-117585144D01*
X155152472Y-117733100D01*
X155063498Y-117866259D01*
X154950259Y-117979498D01*
X154817100Y-118068472D01*
X154669144Y-118129757D01*
X154512074Y-118161000D01*
X154351926Y-118161000D01*
X154194856Y-118129757D01*
X154046900Y-118068472D01*
X153913741Y-117979498D01*
X153800502Y-117866259D01*
X153711528Y-117733100D01*
X153650243Y-117585144D01*
X153619000Y-117428074D01*
X153619000Y-117267926D01*
X153650243Y-117110856D01*
X153711528Y-116962900D01*
X153800502Y-116829741D01*
X153913741Y-116716502D01*
X154046900Y-116627528D01*
X154194856Y-116566243D01*
X154351926Y-116535000D01*
X154512074Y-116535000D01*
X154669144Y-116566243D01*
G37*
G36*
X129269144Y-116566243D02*
G01*
X129417100Y-116627528D01*
X129550259Y-116716502D01*
X129663498Y-116829741D01*
X129752472Y-116962900D01*
X129813757Y-117110856D01*
X129845000Y-117267926D01*
X129845000Y-117428074D01*
X129813757Y-117585144D01*
X129752472Y-117733100D01*
X129663498Y-117866259D01*
X129550259Y-117979498D01*
X129417100Y-118068472D01*
X129269144Y-118129757D01*
X129112074Y-118161000D01*
X128951926Y-118161000D01*
X128794856Y-118129757D01*
X128646900Y-118068472D01*
X128513741Y-117979498D01*
X128400502Y-117866259D01*
X128311528Y-117733100D01*
X128250243Y-117585144D01*
X128219000Y-117428074D01*
X128219000Y-117267926D01*
X128250243Y-117110856D01*
X128311528Y-116962900D01*
X128400502Y-116829741D01*
X128513741Y-116716502D01*
X128646900Y-116627528D01*
X128794856Y-116566243D01*
X128951926Y-116535000D01*
X129112074Y-116535000D01*
X129269144Y-116566243D01*
G37*
G36*
X154669144Y-114026243D02*
G01*
X154817100Y-114087528D01*
X154950259Y-114176502D01*
X155063498Y-114289741D01*
X155152472Y-114422900D01*
X155213757Y-114570856D01*
X155245000Y-114727926D01*
X155245000Y-114888074D01*
X155213757Y-115045144D01*
X155152472Y-115193100D01*
X155063498Y-115326259D01*
X154950259Y-115439498D01*
X154817100Y-115528472D01*
X154669144Y-115589757D01*
X154512074Y-115621000D01*
X154351926Y-115621000D01*
X154194856Y-115589757D01*
X154046900Y-115528472D01*
X153913741Y-115439498D01*
X153800502Y-115326259D01*
X153711528Y-115193100D01*
X153650243Y-115045144D01*
X153619000Y-114888074D01*
X153619000Y-114727926D01*
X153650243Y-114570856D01*
X153711528Y-114422900D01*
X153800502Y-114289741D01*
X153913741Y-114176502D01*
X154046900Y-114087528D01*
X154194856Y-114026243D01*
X154351926Y-113995000D01*
X154512074Y-113995000D01*
X154669144Y-114026243D01*
G37*
G36*
X129269144Y-114026243D02*
G01*
X129417100Y-114087528D01*
X129550259Y-114176502D01*
X129663498Y-114289741D01*
X129752472Y-114422900D01*
X129813757Y-114570856D01*
X129845000Y-114727926D01*
X129845000Y-114888074D01*
X129813757Y-115045144D01*
X129752472Y-115193100D01*
X129663498Y-115326259D01*
X129550259Y-115439498D01*
X129417100Y-115528472D01*
X129269144Y-115589757D01*
X129112074Y-115621000D01*
X128951926Y-115621000D01*
X128794856Y-115589757D01*
X128646900Y-115528472D01*
X128513741Y-115439498D01*
X128400502Y-115326259D01*
X128311528Y-115193100D01*
X128250243Y-115045144D01*
X128219000Y-114888074D01*
X128219000Y-114727926D01*
X128250243Y-114570856D01*
X128311528Y-114422900D01*
X128400502Y-114289741D01*
X128513741Y-114176502D01*
X128646900Y-114087528D01*
X128794856Y-114026243D01*
X128951926Y-113995000D01*
X129112074Y-113995000D01*
X129269144Y-114026243D01*
G37*
G36*
X134147000Y-114843000D02*
G01*
X132045000Y-114843000D01*
X132045000Y-112741000D01*
X134147000Y-112741000D01*
X134147000Y-114843000D01*
G37*
G36*
X151419000Y-114843000D02*
G01*
X149317000Y-114843000D01*
X149317000Y-112741000D01*
X151419000Y-112741000D01*
X151419000Y-114843000D01*
G37*
G36*
X154669144Y-111486243D02*
G01*
X154817100Y-111547528D01*
X154950259Y-111636502D01*
X155063498Y-111749741D01*
X155152472Y-111882900D01*
X155213757Y-112030856D01*
X155245000Y-112187926D01*
X155245000Y-112348074D01*
X155213757Y-112505144D01*
X155152472Y-112653100D01*
X155063498Y-112786259D01*
X154950259Y-112899498D01*
X154817100Y-112988472D01*
X154669144Y-113049757D01*
X154512074Y-113081000D01*
X154351926Y-113081000D01*
X154194856Y-113049757D01*
X154046900Y-112988472D01*
X153913741Y-112899498D01*
X153800502Y-112786259D01*
X153711528Y-112653100D01*
X153650243Y-112505144D01*
X153619000Y-112348074D01*
X153619000Y-112187926D01*
X153650243Y-112030856D01*
X153711528Y-111882900D01*
X153800502Y-111749741D01*
X153913741Y-111636502D01*
X154046900Y-111547528D01*
X154194856Y-111486243D01*
X154351926Y-111455000D01*
X154512074Y-111455000D01*
X154669144Y-111486243D01*
G37*
G36*
X129269144Y-111486243D02*
G01*
X129417100Y-111547528D01*
X129550259Y-111636502D01*
X129663498Y-111749741D01*
X129752472Y-111882900D01*
X129813757Y-112030856D01*
X129845000Y-112187926D01*
X129845000Y-112348074D01*
X129813757Y-112505144D01*
X129752472Y-112653100D01*
X129663498Y-112786259D01*
X129550259Y-112899498D01*
X129417100Y-112988472D01*
X129269144Y-113049757D01*
X129112074Y-113081000D01*
X128951926Y-113081000D01*
X128794856Y-113049757D01*
X128646900Y-112988472D01*
X128513741Y-112899498D01*
X128400502Y-112786259D01*
X128311528Y-112653100D01*
X128250243Y-112505144D01*
X128219000Y-112348074D01*
X128219000Y-112187926D01*
X128250243Y-112030856D01*
X128311528Y-111882900D01*
X128400502Y-111749741D01*
X128513741Y-111636502D01*
X128646900Y-111547528D01*
X128794856Y-111486243D01*
X128951926Y-111455000D01*
X129112074Y-111455000D01*
X129269144Y-111486243D01*
G37*
G36*
X129269144Y-108946243D02*
G01*
X129417100Y-109007528D01*
X129550259Y-109096502D01*
X129663498Y-109209741D01*
X129752472Y-109342900D01*
X129813757Y-109490856D01*
X129845000Y-109647926D01*
X129845000Y-109808074D01*
X129813757Y-109965144D01*
X129752472Y-110113100D01*
X129663498Y-110246259D01*
X129550259Y-110359498D01*
X129417100Y-110448472D01*
X129269144Y-110509757D01*
X129112074Y-110541000D01*
X128951926Y-110541000D01*
X128794856Y-110509757D01*
X128646900Y-110448472D01*
X128513741Y-110359498D01*
X128400502Y-110246259D01*
X128311528Y-110113100D01*
X128250243Y-109965144D01*
X128219000Y-109808074D01*
X128219000Y-109647926D01*
X128250243Y-109490856D01*
X128311528Y-109342900D01*
X128400502Y-109209741D01*
X128513741Y-109096502D01*
X128646900Y-109007528D01*
X128794856Y-108946243D01*
X128951926Y-108915000D01*
X129112074Y-108915000D01*
X129269144Y-108946243D01*
G37*
G36*
X154669144Y-108946243D02*
G01*
X154817100Y-109007528D01*
X154950259Y-109096502D01*
X155063498Y-109209741D01*
X155152472Y-109342900D01*
X155213757Y-109490856D01*
X155245000Y-109647926D01*
X155245000Y-109808074D01*
X155213757Y-109965144D01*
X155152472Y-110113100D01*
X155063498Y-110246259D01*
X154950259Y-110359498D01*
X154817100Y-110448472D01*
X154669144Y-110509757D01*
X154512074Y-110541000D01*
X154351926Y-110541000D01*
X154194856Y-110509757D01*
X154046900Y-110448472D01*
X153913741Y-110359498D01*
X153800502Y-110246259D01*
X153711528Y-110113100D01*
X153650243Y-109965144D01*
X153619000Y-109808074D01*
X153619000Y-109647926D01*
X153650243Y-109490856D01*
X153711528Y-109342900D01*
X153800502Y-109209741D01*
X153913741Y-109096502D01*
X154046900Y-109007528D01*
X154194856Y-108946243D01*
X154351926Y-108915000D01*
X154512074Y-108915000D01*
X154669144Y-108946243D01*
G37*
G36*
X151419000Y-109763000D02*
G01*
X149317000Y-109763000D01*
X149317000Y-107661000D01*
X151419000Y-107661000D01*
X151419000Y-109763000D01*
G37*
G36*
X134147000Y-109763000D02*
G01*
X132045000Y-109763000D01*
X132045000Y-107661000D01*
X134147000Y-107661000D01*
X134147000Y-109763000D01*
G37*
G36*
X154669144Y-106406243D02*
G01*
X154817100Y-106467528D01*
X154950259Y-106556502D01*
X155063498Y-106669741D01*
X155152472Y-106802900D01*
X155213757Y-106950856D01*
X155245000Y-107107926D01*
X155245000Y-107268074D01*
X155213757Y-107425144D01*
X155152472Y-107573100D01*
X155063498Y-107706259D01*
X154950259Y-107819498D01*
X154817100Y-107908472D01*
X154669144Y-107969757D01*
X154512074Y-108001000D01*
X154351926Y-108001000D01*
X154194856Y-107969757D01*
X154046900Y-107908472D01*
X153913741Y-107819498D01*
X153800502Y-107706259D01*
X153711528Y-107573100D01*
X153650243Y-107425144D01*
X153619000Y-107268074D01*
X153619000Y-107107926D01*
X153650243Y-106950856D01*
X153711528Y-106802900D01*
X153800502Y-106669741D01*
X153913741Y-106556502D01*
X154046900Y-106467528D01*
X154194856Y-106406243D01*
X154351926Y-106375000D01*
X154512074Y-106375000D01*
X154669144Y-106406243D01*
G37*
G36*
X129269144Y-106406243D02*
G01*
X129417100Y-106467528D01*
X129550259Y-106556502D01*
X129663498Y-106669741D01*
X129752472Y-106802900D01*
X129813757Y-106950856D01*
X129845000Y-107107926D01*
X129845000Y-107268074D01*
X129813757Y-107425144D01*
X129752472Y-107573100D01*
X129663498Y-107706259D01*
X129550259Y-107819498D01*
X129417100Y-107908472D01*
X129269144Y-107969757D01*
X129112074Y-108001000D01*
X128951926Y-108001000D01*
X128794856Y-107969757D01*
X128646900Y-107908472D01*
X128513741Y-107819498D01*
X128400502Y-107706259D01*
X128311528Y-107573100D01*
X128250243Y-107425144D01*
X128219000Y-107268074D01*
X128219000Y-107107926D01*
X128250243Y-106950856D01*
X128311528Y-106802900D01*
X128400502Y-106669741D01*
X128513741Y-106556502D01*
X128646900Y-106467528D01*
X128794856Y-106406243D01*
X128951926Y-106375000D01*
X129112074Y-106375000D01*
X129269144Y-106406243D01*
G37*
G36*
X129269144Y-103866243D02*
G01*
X129417100Y-103927528D01*
X129550259Y-104016502D01*
X129663498Y-104129741D01*
X129752472Y-104262900D01*
X129813757Y-104410856D01*
X129845000Y-104567926D01*
X129845000Y-104728074D01*
X129813757Y-104885144D01*
X129752472Y-105033100D01*
X129663498Y-105166259D01*
X129550259Y-105279498D01*
X129417100Y-105368472D01*
X129269144Y-105429757D01*
X129112074Y-105461000D01*
X128951926Y-105461000D01*
X128794856Y-105429757D01*
X128646900Y-105368472D01*
X128513741Y-105279498D01*
X128400502Y-105166259D01*
X128311528Y-105033100D01*
X128250243Y-104885144D01*
X128219000Y-104728074D01*
X128219000Y-104567926D01*
X128250243Y-104410856D01*
X128311528Y-104262900D01*
X128400502Y-104129741D01*
X128513741Y-104016502D01*
X128646900Y-103927528D01*
X128794856Y-103866243D01*
X128951926Y-103835000D01*
X129112074Y-103835000D01*
X129269144Y-103866243D01*
G37*
G36*
X154669144Y-103866243D02*
G01*
X154817100Y-103927528D01*
X154950259Y-104016502D01*
X155063498Y-104129741D01*
X155152472Y-104262900D01*
X155213757Y-104410856D01*
X155245000Y-104567926D01*
X155245000Y-104728074D01*
X155213757Y-104885144D01*
X155152472Y-105033100D01*
X155063498Y-105166259D01*
X154950259Y-105279498D01*
X154817100Y-105368472D01*
X154669144Y-105429757D01*
X154512074Y-105461000D01*
X154351926Y-105461000D01*
X154194856Y-105429757D01*
X154046900Y-105368472D01*
X153913741Y-105279498D01*
X153800502Y-105166259D01*
X153711528Y-105033100D01*
X153650243Y-104885144D01*
X153619000Y-104728074D01*
X153619000Y-104567926D01*
X153650243Y-104410856D01*
X153711528Y-104262900D01*
X153800502Y-104129741D01*
X153913741Y-104016502D01*
X154046900Y-103927528D01*
X154194856Y-103866243D01*
X154351926Y-103835000D01*
X154512074Y-103835000D01*
X154669144Y-103866243D01*
G37*
G36*
X151419000Y-104683000D02*
G01*
X149317000Y-104683000D01*
X149317000Y-102581000D01*
X151419000Y-102581000D01*
X151419000Y-104683000D01*
G37*
G36*
X134147000Y-104683000D02*
G01*
X132045000Y-104683000D01*
X132045000Y-102581000D01*
X134147000Y-102581000D01*
X134147000Y-104683000D01*
G37*
G36*
X129269144Y-101326243D02*
G01*
X129417100Y-101387528D01*
X129550259Y-101476502D01*
X129663498Y-101589741D01*
X129752472Y-101722900D01*
X129813757Y-101870856D01*
X129845000Y-102027926D01*
X129845000Y-102188074D01*
X129813757Y-102345144D01*
X129752472Y-102493100D01*
X129663498Y-102626259D01*
X129550259Y-102739498D01*
X129417100Y-102828472D01*
X129269144Y-102889757D01*
X129112074Y-102921000D01*
X128951926Y-102921000D01*
X128794856Y-102889757D01*
X128646900Y-102828472D01*
X128513741Y-102739498D01*
X128400502Y-102626259D01*
X128311528Y-102493100D01*
X128250243Y-102345144D01*
X128219000Y-102188074D01*
X128219000Y-102027926D01*
X128250243Y-101870856D01*
X128311528Y-101722900D01*
X128400502Y-101589741D01*
X128513741Y-101476502D01*
X128646900Y-101387528D01*
X128794856Y-101326243D01*
X128951926Y-101295000D01*
X129112074Y-101295000D01*
X129269144Y-101326243D01*
G37*
G36*
X154669144Y-101326243D02*
G01*
X154817100Y-101387528D01*
X154950259Y-101476502D01*
X155063498Y-101589741D01*
X155152472Y-101722900D01*
X155213757Y-101870856D01*
X155245000Y-102027926D01*
X155245000Y-102188074D01*
X155213757Y-102345144D01*
X155152472Y-102493100D01*
X155063498Y-102626259D01*
X154950259Y-102739498D01*
X154817100Y-102828472D01*
X154669144Y-102889757D01*
X154512074Y-102921000D01*
X154351926Y-102921000D01*
X154194856Y-102889757D01*
X154046900Y-102828472D01*
X153913741Y-102739498D01*
X153800502Y-102626259D01*
X153711528Y-102493100D01*
X153650243Y-102345144D01*
X153619000Y-102188074D01*
X153619000Y-102027926D01*
X153650243Y-101870856D01*
X153711528Y-101722900D01*
X153800502Y-101589741D01*
X153913741Y-101476502D01*
X154046900Y-101387528D01*
X154194856Y-101326243D01*
X154351926Y-101295000D01*
X154512074Y-101295000D01*
X154669144Y-101326243D01*
G37*
G36*
X154669144Y-98786243D02*
G01*
X154817100Y-98847528D01*
X154950259Y-98936502D01*
X155063498Y-99049741D01*
X155152472Y-99182900D01*
X155213757Y-99330856D01*
X155245000Y-99487926D01*
X155245000Y-99648074D01*
X155213757Y-99805144D01*
X155152472Y-99953100D01*
X155063498Y-100086259D01*
X154950259Y-100199498D01*
X154817100Y-100288472D01*
X154669144Y-100349757D01*
X154512074Y-100381000D01*
X154351926Y-100381000D01*
X154194856Y-100349757D01*
X154046900Y-100288472D01*
X153913741Y-100199498D01*
X153800502Y-100086259D01*
X153711528Y-99953100D01*
X153650243Y-99805144D01*
X153619000Y-99648074D01*
X153619000Y-99487926D01*
X153650243Y-99330856D01*
X153711528Y-99182900D01*
X153800502Y-99049741D01*
X153913741Y-98936502D01*
X154046900Y-98847528D01*
X154194856Y-98786243D01*
X154351926Y-98755000D01*
X154512074Y-98755000D01*
X154669144Y-98786243D01*
G37*
G36*
X129269144Y-98786243D02*
G01*
X129417100Y-98847528D01*
X129550259Y-98936502D01*
X129663498Y-99049741D01*
X129752472Y-99182900D01*
X129813757Y-99330856D01*
X129845000Y-99487926D01*
X129845000Y-99648074D01*
X129813757Y-99805144D01*
X129752472Y-99953100D01*
X129663498Y-100086259D01*
X129550259Y-100199498D01*
X129417100Y-100288472D01*
X129269144Y-100349757D01*
X129112074Y-100381000D01*
X128951926Y-100381000D01*
X128794856Y-100349757D01*
X128646900Y-100288472D01*
X128513741Y-100199498D01*
X128400502Y-100086259D01*
X128311528Y-99953100D01*
X128250243Y-99805144D01*
X128219000Y-99648074D01*
X128219000Y-99487926D01*
X128250243Y-99330856D01*
X128311528Y-99182900D01*
X128400502Y-99049741D01*
X128513741Y-98936502D01*
X128646900Y-98847528D01*
X128794856Y-98786243D01*
X128951926Y-98755000D01*
X129112074Y-98755000D01*
X129269144Y-98786243D01*
G37*
G36*
X134147000Y-99603000D02*
G01*
X132045000Y-99603000D01*
X132045000Y-97501000D01*
X134147000Y-97501000D01*
X134147000Y-99603000D01*
G37*
G36*
X151419000Y-99603000D02*
G01*
X149317000Y-99603000D01*
X149317000Y-97501000D01*
X151419000Y-97501000D01*
X151419000Y-99603000D01*
G37*
G36*
X129269144Y-96246243D02*
G01*
X129417100Y-96307528D01*
X129550259Y-96396502D01*
X129663498Y-96509741D01*
X129752472Y-96642900D01*
X129813757Y-96790856D01*
X129845000Y-96947926D01*
X129845000Y-97108074D01*
X129813757Y-97265144D01*
X129752472Y-97413100D01*
X129663498Y-97546259D01*
X129550259Y-97659498D01*
X129417100Y-97748472D01*
X129269144Y-97809757D01*
X129112074Y-97841000D01*
X128951926Y-97841000D01*
X128794856Y-97809757D01*
X128646900Y-97748472D01*
X128513741Y-97659498D01*
X128400502Y-97546259D01*
X128311528Y-97413100D01*
X128250243Y-97265144D01*
X128219000Y-97108074D01*
X128219000Y-96947926D01*
X128250243Y-96790856D01*
X128311528Y-96642900D01*
X128400502Y-96509741D01*
X128513741Y-96396502D01*
X128646900Y-96307528D01*
X128794856Y-96246243D01*
X128951926Y-96215000D01*
X129112074Y-96215000D01*
X129269144Y-96246243D01*
G37*
G36*
X154669144Y-96246243D02*
G01*
X154817100Y-96307528D01*
X154950259Y-96396502D01*
X155063498Y-96509741D01*
X155152472Y-96642900D01*
X155213757Y-96790856D01*
X155245000Y-96947926D01*
X155245000Y-97108074D01*
X155213757Y-97265144D01*
X155152472Y-97413100D01*
X155063498Y-97546259D01*
X154950259Y-97659498D01*
X154817100Y-97748472D01*
X154669144Y-97809757D01*
X154512074Y-97841000D01*
X154351926Y-97841000D01*
X154194856Y-97809757D01*
X154046900Y-97748472D01*
X153913741Y-97659498D01*
X153800502Y-97546259D01*
X153711528Y-97413100D01*
X153650243Y-97265144D01*
X153619000Y-97108074D01*
X153619000Y-96947926D01*
X153650243Y-96790856D01*
X153711528Y-96642900D01*
X153800502Y-96509741D01*
X153913741Y-96396502D01*
X154046900Y-96307528D01*
X154194856Y-96246243D01*
X154351926Y-96215000D01*
X154512074Y-96215000D01*
X154669144Y-96246243D01*
G37*
G36*
X131834812Y-93621624D02*
G01*
X131998784Y-93689544D01*
X132146354Y-93788147D01*
X132271853Y-93913646D01*
X132370456Y-94061216D01*
X132438376Y-94225188D01*
X132473000Y-94399259D01*
X132473000Y-94576741D01*
X132438376Y-94750812D01*
X132370456Y-94914784D01*
X132271853Y-95062354D01*
X132146354Y-95187853D01*
X131998784Y-95286456D01*
X131834812Y-95354376D01*
X131660741Y-95389000D01*
X131483259Y-95389000D01*
X131309188Y-95354376D01*
X131145216Y-95286456D01*
X130997646Y-95187853D01*
X130872147Y-95062354D01*
X130773544Y-94914784D01*
X130705624Y-94750812D01*
X130671000Y-94576741D01*
X130671000Y-94399259D01*
X130705624Y-94225188D01*
X130773544Y-94061216D01*
X130872147Y-93913646D01*
X130997646Y-93788147D01*
X131145216Y-93689544D01*
X131309188Y-93621624D01*
X131483259Y-93587000D01*
X131660741Y-93587000D01*
X131834812Y-93621624D01*
G37*
G36*
X155333000Y-95389000D02*
G01*
X153531000Y-95389000D01*
X153531000Y-93587000D01*
X155333000Y-93587000D01*
X155333000Y-95389000D01*
G37*
G36*
X129294812Y-93621624D02*
G01*
X129458784Y-93689544D01*
X129606354Y-93788147D01*
X129731853Y-93913646D01*
X129830456Y-94061216D01*
X129898376Y-94225188D01*
X129933000Y-94399259D01*
X129933000Y-94576741D01*
X129898376Y-94750812D01*
X129830456Y-94914784D01*
X129731853Y-95062354D01*
X129606354Y-95187853D01*
X129458784Y-95286456D01*
X129294812Y-95354376D01*
X129120741Y-95389000D01*
X128943259Y-95389000D01*
X128769188Y-95354376D01*
X128605216Y-95286456D01*
X128457646Y-95187853D01*
X128332147Y-95062354D01*
X128233544Y-94914784D01*
X128165624Y-94750812D01*
X128131000Y-94576741D01*
X128131000Y-94399259D01*
X128165624Y-94225188D01*
X128233544Y-94061216D01*
X128332147Y-93913646D01*
X128457646Y-93788147D01*
X128605216Y-93689544D01*
X128769188Y-93621624D01*
X128943259Y-93587000D01*
X129120741Y-93587000D01*
X129294812Y-93621624D01*
G37*
G36*
X144556247Y-93481817D02*
G01*
X144604677Y-93491450D01*
X144657601Y-93513372D01*
X144673103Y-93519793D01*
X144734686Y-93560942D01*
X144787058Y-93613314D01*
X144828207Y-93674897D01*
X144828208Y-93674900D01*
X144856550Y-93743323D01*
X144871000Y-93815968D01*
X144871000Y-93890032D01*
X144856550Y-93962677D01*
X144834628Y-94015601D01*
X144828207Y-94031103D01*
X144787058Y-94092686D01*
X144734686Y-94145058D01*
X144673103Y-94186207D01*
X144657601Y-94192628D01*
X144604677Y-94214550D01*
X144556247Y-94224183D01*
X144532033Y-94229000D01*
X144457967Y-94229000D01*
X144433753Y-94224183D01*
X144385323Y-94214550D01*
X144332399Y-94192628D01*
X144316897Y-94186207D01*
X144255314Y-94145058D01*
X144202942Y-94092686D01*
X144161793Y-94031103D01*
X144155372Y-94015601D01*
X144133450Y-93962677D01*
X144119000Y-93890032D01*
X144119000Y-93815968D01*
X144133450Y-93743323D01*
X144161792Y-93674900D01*
X144161793Y-93674897D01*
X144202942Y-93613314D01*
X144255314Y-93560942D01*
X144316897Y-93519793D01*
X144332399Y-93513372D01*
X144385323Y-93491450D01*
X144433753Y-93481817D01*
X144457967Y-93477000D01*
X144532033Y-93477000D01*
X144556247Y-93481817D01*
G37*
G36*
X138776247Y-93481817D02*
G01*
X138824677Y-93491450D01*
X138877601Y-93513372D01*
X138893103Y-93519793D01*
X138954686Y-93560942D01*
X139007058Y-93613314D01*
X139048207Y-93674897D01*
X139048208Y-93674900D01*
X139076550Y-93743323D01*
X139091000Y-93815968D01*
X139091000Y-93890032D01*
X139076550Y-93962677D01*
X139054628Y-94015601D01*
X139048207Y-94031103D01*
X139007058Y-94092686D01*
X138954686Y-94145058D01*
X138893103Y-94186207D01*
X138877601Y-94192628D01*
X138824677Y-94214550D01*
X138776247Y-94224183D01*
X138752033Y-94229000D01*
X138677967Y-94229000D01*
X138653753Y-94224183D01*
X138605323Y-94214550D01*
X138552399Y-94192628D01*
X138536897Y-94186207D01*
X138475314Y-94145058D01*
X138422942Y-94092686D01*
X138381793Y-94031103D01*
X138375372Y-94015601D01*
X138353450Y-93962677D01*
X138339000Y-93890032D01*
X138339000Y-93815968D01*
X138353450Y-93743323D01*
X138381792Y-93674900D01*
X138381793Y-93674897D01*
X138422942Y-93613314D01*
X138475314Y-93560942D01*
X138536897Y-93519793D01*
X138552399Y-93513372D01*
X138605323Y-93491450D01*
X138653753Y-93481817D01*
X138677967Y-93477000D01*
X138752033Y-93477000D01*
X138776247Y-93481817D01*
G37*
G36*
X129294812Y-91081624D02*
G01*
X129458784Y-91149544D01*
X129606354Y-91248147D01*
X129731853Y-91373646D01*
X129830456Y-91521216D01*
X129898376Y-91685188D01*
X129933000Y-91859259D01*
X129933000Y-92036741D01*
X129898376Y-92210812D01*
X129830456Y-92374784D01*
X129731853Y-92522354D01*
X129606354Y-92647853D01*
X129458784Y-92746456D01*
X129294812Y-92814376D01*
X129120741Y-92849000D01*
X128943259Y-92849000D01*
X128769188Y-92814376D01*
X128605216Y-92746456D01*
X128457646Y-92647853D01*
X128332147Y-92522354D01*
X128233544Y-92374784D01*
X128165624Y-92210812D01*
X128131000Y-92036741D01*
X128131000Y-91859259D01*
X128165624Y-91685188D01*
X128233544Y-91521216D01*
X128332147Y-91373646D01*
X128457646Y-91248147D01*
X128605216Y-91149544D01*
X128769188Y-91081624D01*
X128943259Y-91047000D01*
X129120741Y-91047000D01*
X129294812Y-91081624D01*
G37*
G36*
X154694812Y-91081624D02*
G01*
X154858784Y-91149544D01*
X155006354Y-91248147D01*
X155131853Y-91373646D01*
X155230456Y-91521216D01*
X155298376Y-91685188D01*
X155333000Y-91859259D01*
X155333000Y-92036741D01*
X155298376Y-92210812D01*
X155230456Y-92374784D01*
X155131853Y-92522354D01*
X155006354Y-92647853D01*
X154858784Y-92746456D01*
X154694812Y-92814376D01*
X154520741Y-92849000D01*
X154343259Y-92849000D01*
X154169188Y-92814376D01*
X154005216Y-92746456D01*
X153857646Y-92647853D01*
X153732147Y-92522354D01*
X153633544Y-92374784D01*
X153565624Y-92210812D01*
X153531000Y-92036741D01*
X153531000Y-91859259D01*
X153565624Y-91685188D01*
X153633544Y-91521216D01*
X153732147Y-91373646D01*
X153857646Y-91248147D01*
X154005216Y-91149544D01*
X154169188Y-91081624D01*
X154343259Y-91047000D01*
X154520741Y-91047000D01*
X154694812Y-91081624D01*
G37*
G36*
X131834812Y-91081624D02*
G01*
X131998784Y-91149544D01*
X132146354Y-91248147D01*
X132271853Y-91373646D01*
X132370456Y-91521216D01*
X132438376Y-91685188D01*
X132473000Y-91859259D01*
X132473000Y-92036741D01*
X132438376Y-92210812D01*
X132370456Y-92374784D01*
X132271853Y-92522354D01*
X132146354Y-92647853D01*
X131998784Y-92746456D01*
X131834812Y-92814376D01*
X131660741Y-92849000D01*
X131483259Y-92849000D01*
X131309188Y-92814376D01*
X131145216Y-92746456D01*
X130997646Y-92647853D01*
X130872147Y-92522354D01*
X130773544Y-92374784D01*
X130705624Y-92210812D01*
X130671000Y-92036741D01*
X130671000Y-91859259D01*
X130705624Y-91685188D01*
X130773544Y-91521216D01*
X130872147Y-91373646D01*
X130997646Y-91248147D01*
X131145216Y-91149544D01*
X131309188Y-91081624D01*
X131483259Y-91047000D01*
X131660741Y-91047000D01*
X131834812Y-91081624D01*
G37*
G36*
X152793000Y-90309000D02*
G01*
X150991000Y-90309000D01*
X150991000Y-88507000D01*
X152793000Y-88507000D01*
X152793000Y-90309000D01*
G37*
G36*
X154694812Y-88541624D02*
G01*
X154858784Y-88609544D01*
X155006354Y-88708147D01*
X155131853Y-88833646D01*
X155230456Y-88981216D01*
X155298376Y-89145188D01*
X155333000Y-89319259D01*
X155333000Y-89496741D01*
X155298376Y-89670812D01*
X155230456Y-89834784D01*
X155131853Y-89982354D01*
X155006354Y-90107853D01*
X154858784Y-90206456D01*
X154694812Y-90274376D01*
X154520741Y-90309000D01*
X154343259Y-90309000D01*
X154169188Y-90274376D01*
X154005216Y-90206456D01*
X153857646Y-90107853D01*
X153732147Y-89982354D01*
X153633544Y-89834784D01*
X153565624Y-89670812D01*
X153531000Y-89496741D01*
X153531000Y-89319259D01*
X153565624Y-89145188D01*
X153633544Y-88981216D01*
X153732147Y-88833646D01*
X153857646Y-88708147D01*
X154005216Y-88609544D01*
X154169188Y-88541624D01*
X154343259Y-88507000D01*
X154520741Y-88507000D01*
X154694812Y-88541624D01*
G37*
G36*
X129933000Y-90309000D02*
G01*
X128131000Y-90309000D01*
X128131000Y-88507000D01*
X129933000Y-88507000D01*
X129933000Y-90309000D01*
G37*
G36*
X131834812Y-88541624D02*
G01*
X131998784Y-88609544D01*
X132146354Y-88708147D01*
X132271853Y-88833646D01*
X132370456Y-88981216D01*
X132438376Y-89145188D01*
X132473000Y-89319259D01*
X132473000Y-89496741D01*
X132438376Y-89670812D01*
X132370456Y-89834784D01*
X132271853Y-89982354D01*
X132146354Y-90107853D01*
X131998784Y-90206456D01*
X131834812Y-90274376D01*
X131660741Y-90309000D01*
X131483259Y-90309000D01*
X131309188Y-90274376D01*
X131145216Y-90206456D01*
X130997646Y-90107853D01*
X130872147Y-89982354D01*
X130773544Y-89834784D01*
X130705624Y-89670812D01*
X130671000Y-89496741D01*
X130671000Y-89319259D01*
X130705624Y-89145188D01*
X130773544Y-88981216D01*
X130872147Y-88833646D01*
X130997646Y-88708147D01*
X131145216Y-88609544D01*
X131309188Y-88541624D01*
X131483259Y-88507000D01*
X131660741Y-88507000D01*
X131834812Y-88541624D01*
G37*
M02*
