M48
; DRILL file {KiCad (5.1.5)-3} date 1/4/2020 5:30:42 PM
; FORMAT={-:-/ absolute / inch / decimal}
; #@! TF.CreationDate,2020-01-04T17:30:42-08:00
; #@! TF.GenerationSoftware,Kicad,Pcbnew,(5.1.5)-3
; #@! TF.FileFunction,Plated,1,2,PTH
FMAT,2
INCH
T1C0.0100
T2C0.0300
T3C0.0394
%
G90
G05
T1
X5.3Y-4.185
X5.315Y-3.96
X5.32Y-4.125
X5.34Y-4.105
X5.3457Y-3.9525
X5.4018Y-4.1061
X5.405Y-4.18
X5.424Y-4.0811
X5.425Y-3.95
X5.43Y-3.795
X5.505Y-4.1
X5.5066Y-3.9157
X5.51Y-3.785
X5.5216Y-4.3416
X5.53Y-4.83
X5.54Y-3.79
X5.5639Y-4.415
X5.5659Y-4.4959
X5.57Y-4.465
X5.585Y-4.39
X5.68Y-4.565
X5.68Y-4.6
X5.69Y-4.285
X5.7125Y-4.6075
X5.715Y-4.065
X5.725Y-3.9
X5.7631Y-4.06
X5.782Y-3.958
T2
X5.08Y-3.82
X5.08Y-3.92
X5.08Y-4.02
X5.08Y-4.12
X5.08Y-4.22
X5.08Y-4.32
X5.08Y-4.42
X5.08Y-4.52
X5.08Y-4.62
X5.08Y-4.72
X5.08Y-4.82
X5.08Y-4.92
X5.98Y-3.82
X5.98Y-3.92
X5.98Y-4.02
X5.98Y-4.12
X5.98Y-4.22
X5.98Y-4.32
X5.98Y-4.42
X5.98Y-4.52
X5.98Y-4.62
X5.98Y-4.72
X5.98Y-4.82
X5.98Y-4.92
T3
X5.08Y-3.505
X5.18Y-3.505
T0
M30
