G04 #@! TF.GenerationSoftware,KiCad,Pcbnew,(5.1.5)-3*
G04 #@! TF.CreationDate,2020-01-04T17:30:10-08:00*
G04 #@! TF.ProjectId,pcb,7063622e-6b69-4636-9164-5f7063625858,v1.1*
G04 #@! TF.SameCoordinates,Original*
G04 #@! TF.FileFunction,Copper,L2,Bot*
G04 #@! TF.FilePolarity,Positive*
%FSLAX46Y46*%
G04 Gerber Fmt 4.6, Leading zero omitted, Abs format (unit mm)*
G04 Created by KiCad (PCBNEW (5.1.5)-3) date 2020-01-04 17:30:10*
%MOMM*%
%LPD*%
G04 APERTURE LIST*
%ADD10R,1.524000X1.524000*%
%ADD11C,1.524000*%
%ADD12R,1.700000X1.700000*%
%ADD13O,1.700000X1.700000*%
%ADD14C,0.508000*%
%ADD15C,0.152400*%
G04 APERTURE END LIST*
D10*
X151892000Y-124968000D03*
D11*
X151892000Y-122428000D03*
X151892000Y-119888000D03*
X151892000Y-117348000D03*
X151892000Y-114808000D03*
X151892000Y-112268000D03*
X151892000Y-109728000D03*
X151892000Y-107188000D03*
X151892000Y-104648000D03*
X151892000Y-102108000D03*
X151892000Y-99568000D03*
X151892000Y-97028000D03*
X129032000Y-97028000D03*
X129032000Y-99568000D03*
X129032000Y-102108000D03*
X129032000Y-104648000D03*
X129032000Y-107188000D03*
X129032000Y-109728000D03*
X129032000Y-112268000D03*
X129032000Y-114808000D03*
X129032000Y-117348000D03*
X129032000Y-119888000D03*
X129032000Y-122428000D03*
X129032000Y-124968000D03*
D12*
X129032000Y-89027000D03*
D13*
X131572000Y-89027000D03*
D14*
X135636000Y-104267000D03*
X137205200Y-104294800D03*
X141859000Y-111506000D03*
X137287000Y-106172000D03*
X145161000Y-103251000D03*
X139827000Y-104140000D03*
X144526000Y-108839000D03*
X135128000Y-104775000D03*
X140249447Y-110277447D03*
X144272000Y-115951000D03*
X140462000Y-122682000D03*
X141323200Y-112141000D03*
X134620000Y-106299000D03*
X146381553Y-103124000D03*
X144272000Y-116840000D03*
X140716000Y-96266000D03*
X145096793Y-117031207D03*
X139954000Y-96139000D03*
X141478000Y-113411000D03*
X146861753Y-100534247D03*
X141373053Y-114195053D03*
X145415000Y-99060000D03*
X135001000Y-100584000D03*
X137770148Y-103659800D03*
X137795000Y-100330000D03*
X139868294Y-99458413D03*
X137922000Y-96393000D03*
X135781847Y-100392953D03*
D15*
X135663800Y-104294800D02*
X135636000Y-104267000D01*
X137205200Y-104294800D02*
X135663800Y-104294800D01*
X137287000Y-108025698D02*
X137287000Y-106172000D01*
X141859000Y-111506000D02*
X140767302Y-111506000D01*
X140767302Y-111506000D02*
X137287000Y-108025698D01*
X145161000Y-108914698D02*
X145161000Y-103251000D01*
X141859000Y-111506000D02*
X142569698Y-111506000D01*
X142569698Y-111506000D02*
X145161000Y-108914698D01*
X139827000Y-104140000D02*
X144526000Y-108839000D01*
X139827000Y-104140000D02*
X139192000Y-104775000D01*
X139192000Y-104775000D02*
X135128000Y-104775000D01*
X141687894Y-108839000D02*
X144526000Y-108839000D01*
X140249447Y-110277447D02*
X141687894Y-108839000D01*
X144272000Y-115951000D02*
X140462000Y-119761000D01*
X140462000Y-119761000D02*
X140462000Y-122682000D01*
X141069201Y-111887001D02*
X140335001Y-111887001D01*
X141323200Y-112141000D02*
X141069201Y-111887001D01*
X140335001Y-111887001D02*
X140208001Y-111887001D01*
X140208001Y-111887001D02*
X134620000Y-106299000D01*
X141323200Y-112141000D02*
X142362370Y-112141000D01*
X142362370Y-112141000D02*
X146304000Y-108199370D01*
X146304000Y-103560763D02*
X146304000Y-108199370D01*
X146381553Y-103483210D02*
X146304000Y-103560763D01*
X146381553Y-103124000D02*
X146381553Y-103483210D01*
X147644363Y-100178487D02*
X143731876Y-96266000D01*
X143731876Y-96266000D02*
X140716000Y-96266000D01*
X144272000Y-116840000D02*
X147644364Y-113467636D01*
X147644364Y-113467636D02*
X147644363Y-100178487D01*
X147946772Y-114181228D02*
X147946772Y-100053224D01*
X140307201Y-95785799D02*
X139954000Y-96139000D01*
X145096793Y-117031207D02*
X147946772Y-114181228D01*
X143679347Y-95785799D02*
X140307201Y-95785799D01*
X147946772Y-100053224D02*
X143679347Y-95785799D01*
X146861753Y-108386457D02*
X146861753Y-100534247D01*
X141478000Y-113411000D02*
X141837210Y-113411000D01*
X141837210Y-113411000D02*
X146861753Y-108386457D01*
X141373053Y-114195053D02*
X141732263Y-114195053D01*
X147341954Y-100303750D02*
X146098204Y-99060000D01*
X141732263Y-114195053D02*
X147341954Y-108585362D01*
X147341954Y-108585362D02*
X147341954Y-100303750D01*
X146098204Y-99060000D02*
X145415000Y-99060000D01*
X135343759Y-100926759D02*
X135343759Y-103085759D01*
X135343759Y-103085759D02*
X136017000Y-103759000D01*
X135001000Y-100584000D02*
X135343759Y-100926759D01*
X136017000Y-103759000D02*
X137922000Y-103759000D01*
X139772781Y-99458413D02*
X139868294Y-99458413D01*
X138996707Y-100330000D02*
X139868294Y-99458413D01*
X137795000Y-100330000D02*
X138996707Y-100330000D01*
X137922000Y-96393000D02*
X137922000Y-98252800D01*
X137922000Y-98252800D02*
X135781847Y-100392953D01*
M02*
